<svg width="277" height="278" viewBox="0 0 277 278" fill="none" xmlns="http://www.w3.org/2000/svg">
<path d="M87.1133 1.56765C87.1665 1.56765 87.2098 1.52452 87.2098 1.47132C87.2098 1.41811 87.1665 1.37498 87.1133 1.37498C87.0601 1.37498 87.0171 1.41811 87.0171 1.47132C87.0171 1.52452 87.0601 1.56765 87.1133 1.56765Z" fill="#F7941E" fill-opacity="0.2"/>
<path d="M104.242 2.27607C104.687 2.27607 105.048 1.91521 105.048 1.47007C105.048 1.02492 104.687 0.664062 104.242 0.664062C103.797 0.664062 103.436 1.02492 103.436 1.47007C103.436 1.91521 103.797 2.27607 104.242 2.27607Z" fill="#F7941E" fill-opacity="0.2"/>
<path d="M121.37 2.84895C122.131 2.84895 122.747 2.23218 122.747 1.47135C122.747 0.710525 122.131 0.09375 121.37 0.09375C120.609 0.09375 119.992 0.710525 119.992 1.47135C119.992 2.23218 120.609 2.84895 121.37 2.84895Z" fill="#F7941E" fill-opacity="0.2"/>
<path d="M138.499 2.94145C139.311 2.94145 139.969 2.28298 139.969 1.47072C139.969 0.658466 139.311 0 138.499 0C137.686 0 137.028 0.658466 137.028 1.47072C137.028 2.28298 137.686 2.94145 138.499 2.94145Z" fill="#F7941E" fill-opacity="0.2"/>
<path d="M155.626 2.84895C156.387 2.84895 157.004 2.23218 157.004 1.47135C157.004 0.710525 156.387 0.09375 155.626 0.09375C154.866 0.09375 154.249 0.710525 154.249 1.47135C154.249 2.23218 154.866 2.84895 155.626 2.84895Z" fill="#F7941E" fill-opacity="0.2"/>
<path d="M172.756 2.23204C173.176 2.23204 173.517 1.89131 173.517 1.471C173.517 1.05068 173.176 0.709946 172.756 0.709946C172.335 0.709946 171.995 1.05068 171.995 1.471C171.995 1.89131 172.335 2.23204 172.756 2.23204Z" fill="#F7941E" fill-opacity="0.2"/>
<path d="M189.883 1.51822C189.91 1.51822 189.931 1.49687 189.931 1.47053C189.931 1.4442 189.91 1.42285 189.883 1.42285C189.857 1.42285 189.835 1.4442 189.835 1.47053C189.835 1.49687 189.857 1.51822 189.883 1.51822Z" fill="#F7941E" fill-opacity="0.2"/>
<path d="M52.8558 18.6491C52.8822 18.6491 52.9036 18.6277 52.9036 18.6014C52.9036 18.5751 52.8822 18.5537 52.8558 18.5537C52.8295 18.5537 52.8081 18.5751 52.8081 18.6014C52.8081 18.6277 52.8295 18.6491 52.8558 18.6491Z" fill="#F7941E" fill-opacity="0.2"/>
<path d="M69.9848 20.0274C70.7722 20.0274 71.4106 19.3891 71.4106 18.6016C71.4106 17.8142 70.7722 17.1759 69.9848 17.1759C69.1973 17.1759 68.5591 17.8142 68.5591 18.6016C68.5591 19.3891 69.1973 20.0274 69.9848 20.0274Z" fill="#F7941E" fill-opacity="0.2"/>
<path d="M87.1127 21.4982C88.7124 21.4982 90.0093 20.2014 90.0093 18.6017C90.0093 17.002 88.7124 15.7052 87.1127 15.7052C85.513 15.7052 84.2163 17.002 84.2163 18.6017C84.2163 20.2014 85.513 21.4982 87.1127 21.4982Z" fill="#F7941E" fill-opacity="0.2"/>
<path d="M104.242 21.8319C106.026 21.8319 107.472 20.3856 107.472 18.6014C107.472 16.8173 106.026 15.371 104.242 15.371C102.458 15.371 101.011 16.8173 101.011 18.6014C101.011 20.3856 102.458 21.8319 104.242 21.8319Z" fill="#F7941E" fill-opacity="0.2"/>
<path d="M121.37 21.8319C123.154 21.8319 124.6 20.3856 124.6 18.6014C124.6 16.8173 123.154 15.371 121.37 15.371C119.586 15.371 118.14 16.8173 118.14 18.6014C118.14 20.3856 119.586 21.8319 121.37 21.8319Z" fill="#F7941E" fill-opacity="0.2"/>
<path d="M138.498 21.8319C140.283 21.8319 141.729 20.3856 141.729 18.6014C141.729 16.8173 140.283 15.371 138.498 15.371C136.714 15.371 135.268 16.8173 135.268 18.6014C135.268 20.3856 136.714 21.8319 138.498 21.8319Z" fill="#F7941E" fill-opacity="0.2"/>
<path d="M155.627 21.8319C157.411 21.8319 158.857 20.3856 158.857 18.6014C158.857 16.8173 157.411 15.371 155.627 15.371C153.843 15.371 152.396 16.8173 152.396 18.6014C152.396 20.3856 153.843 21.8319 155.627 21.8319Z" fill="#F7941E" fill-opacity="0.2"/>
<path d="M172.755 21.8319C174.54 21.8319 175.986 20.3856 175.986 18.6014C175.986 16.8173 174.54 15.371 172.755 15.371C170.971 15.371 169.525 16.8173 169.525 18.6014C169.525 20.3856 170.971 21.8319 172.755 21.8319Z" fill="#F7941E" fill-opacity="0.2"/>
<path d="M189.884 21.4504C191.457 21.4504 192.732 20.1751 192.732 18.6021C192.732 17.029 191.457 15.7538 189.884 15.7538C188.311 15.7538 187.036 17.029 187.036 18.6021C187.036 20.1751 188.311 21.4504 189.884 21.4504Z" fill="#F7941E" fill-opacity="0.2"/>
<path d="M207.016 19.9313C207.75 19.9313 208.345 19.3361 208.345 18.6019C208.345 17.8677 207.75 17.2725 207.016 17.2725C206.282 17.2725 205.687 17.8677 205.687 18.6019C205.687 19.3361 206.282 19.9313 207.016 19.9313Z" fill="#F7941E" fill-opacity="0.2"/>
<path d="M224.143 18.6491C224.17 18.6491 224.191 18.6277 224.191 18.6014C224.191 18.5751 224.17 18.5537 224.143 18.5537C224.117 18.5537 224.096 18.5751 224.096 18.6014C224.096 18.6277 224.117 18.6491 224.143 18.6491Z" fill="#F7941E" fill-opacity="0.2"/>
<path d="M35.728 35.9704C35.8592 35.9704 35.9655 35.864 35.9655 35.7328C35.9655 35.6015 35.8592 35.4951 35.728 35.4951C35.5967 35.4951 35.4902 35.6015 35.4902 35.7328C35.4902 35.864 35.5967 35.9704 35.728 35.9704Z" fill="#F7941E" fill-opacity="0.2"/>
<path d="M52.8561 38.0605C54.1418 38.0605 55.1841 37.0182 55.1841 35.7324C55.1841 34.4466 54.1418 33.4043 52.8561 33.4043C51.5703 33.4043 50.5278 34.4466 50.5278 35.7324C50.5278 37.0182 51.5703 38.0605 52.8561 38.0605Z" fill="#F7941E" fill-opacity="0.2"/>
<path d="M69.9848 38.9638C71.7689 38.9638 73.2152 37.5175 73.2152 35.7334C73.2152 33.9492 71.7689 32.5029 69.9848 32.5029C68.2007 32.5029 66.7544 33.9492 66.7544 35.7334C66.7544 37.5175 68.2007 38.9638 69.9848 38.9638Z" fill="#F7941E" fill-opacity="0.2"/>
<path d="M87.1132 38.9638C88.8973 38.9638 90.3438 37.5175 90.3438 35.7334C90.3438 33.9492 88.8973 32.5029 87.1132 32.5029C85.3291 32.5029 83.8828 33.9492 83.8828 35.7334C83.8828 37.5175 85.3291 38.9638 87.1132 38.9638Z" fill="#F7941E" fill-opacity="0.2"/>
<path d="M104.242 38.9638C106.026 38.9638 107.472 37.5175 107.472 35.7334C107.472 33.9492 106.026 32.5029 104.242 32.5029C102.458 32.5029 101.011 33.9492 101.011 35.7334C101.011 37.5175 102.458 38.9638 104.242 38.9638Z" fill="#F7941E" fill-opacity="0.2"/>
<path d="M121.37 38.9638C123.154 38.9638 124.6 37.5175 124.6 35.7334C124.6 33.9492 123.154 32.5029 121.37 32.5029C119.586 32.5029 118.14 33.9492 118.14 35.7334C118.14 37.5175 119.586 38.9638 121.37 38.9638Z" fill="#F7941E" fill-opacity="0.2"/>
<path d="M138.498 38.9638C140.283 38.9638 141.729 37.5175 141.729 35.7334C141.729 33.9492 140.283 32.5029 138.498 32.5029C136.714 32.5029 135.268 33.9492 135.268 35.7334C135.268 37.5175 136.714 38.9638 138.498 38.9638Z" fill="#F7941E" fill-opacity="0.2"/>
<path d="M155.627 38.9638C157.411 38.9638 158.857 37.5175 158.857 35.7334C158.857 33.9492 157.411 32.5029 155.627 32.5029C153.843 32.5029 152.396 33.9492 152.396 35.7334C152.396 37.5175 153.843 38.9638 155.627 38.9638Z" fill="#F7941E" fill-opacity="0.2"/>
<path d="M172.755 38.9638C174.54 38.9638 175.986 37.5175 175.986 35.7334C175.986 33.9492 174.54 32.5029 172.755 32.5029C170.971 32.5029 169.525 33.9492 169.525 35.7334C169.525 37.5175 170.971 38.9638 172.755 38.9638Z" fill="#F7941E" fill-opacity="0.2"/>
<path d="M189.884 38.9638C191.668 38.9638 193.114 37.5175 193.114 35.7334C193.114 33.9492 191.668 32.5029 189.884 32.5029C188.1 32.5029 186.653 33.9492 186.653 35.7334C186.653 37.5175 188.1 38.9638 189.884 38.9638Z" fill="#F7941E" fill-opacity="0.2"/>
<path d="M207.016 38.9638C208.8 38.9638 210.246 37.5175 210.246 35.7334C210.246 33.9492 208.8 32.5029 207.016 32.5029C205.232 32.5029 203.785 33.9492 203.785 35.7334C203.785 37.5175 205.232 38.9638 207.016 38.9638Z" fill="#F7941E" fill-opacity="0.2"/>
<path d="M224.144 38.0131C225.403 38.0131 226.424 36.9923 226.424 35.7331C226.424 34.4739 225.403 33.4532 224.144 33.4532C222.885 33.4532 221.864 34.4739 221.864 35.7331C221.864 36.9923 222.885 38.0131 224.144 38.0131Z" fill="#F7941E" fill-opacity="0.2"/>
<path d="M241.273 35.8744C241.351 35.8744 241.414 35.8112 241.414 35.7331C241.414 35.6551 241.351 35.5919 241.273 35.5919C241.195 35.5919 241.131 35.6551 241.131 35.7331C241.131 35.8112 241.195 35.8744 241.273 35.8744Z" fill="#F7941E" fill-opacity="0.2"/>
<path d="M18.5988 52.9108C18.6251 52.9108 18.6465 52.8894 18.6465 52.8631C18.6465 52.8367 18.6251 52.8154 18.5988 52.8154C18.5725 52.8154 18.5513 52.8367 18.5513 52.8631C18.5513 52.8894 18.5725 52.9108 18.5988 52.9108Z" fill="#F7941E" fill-opacity="0.2"/>
<path d="M35.7281 55.1914C37.0139 55.1914 38.0562 54.149 38.0562 52.8632C38.0562 51.5775 37.0139 50.5352 35.7281 50.5352C34.4424 50.5352 33.3999 51.5775 33.3999 52.8632C33.3999 54.149 34.4424 55.1914 35.7281 55.1914Z" fill="#F7941E" fill-opacity="0.2"/>
<path d="M52.8559 56.0937C54.64 56.0937 56.0863 54.6474 56.0863 52.8633C56.0863 51.0791 54.64 49.6328 52.8559 49.6328C51.0718 49.6328 49.6255 51.0791 49.6255 52.8633C49.6255 54.6474 51.0718 56.0937 52.8559 56.0937Z" fill="#F7941E" fill-opacity="0.2"/>
<path d="M69.9848 56.0937C71.7689 56.0937 73.2152 54.6474 73.2152 52.8633C73.2152 51.0791 71.7689 49.6328 69.9848 49.6328C68.2007 49.6328 66.7544 51.0791 66.7544 52.8633C66.7544 54.6474 68.2007 56.0937 69.9848 56.0937Z" fill="#F7941E" fill-opacity="0.2"/>
<path d="M87.1132 56.0937C88.8973 56.0937 90.3438 54.6474 90.3438 52.8633C90.3438 51.0791 88.8973 49.6328 87.1132 49.6328C85.3291 49.6328 83.8828 51.0791 83.8828 52.8633C83.8828 54.6474 85.3291 56.0937 87.1132 56.0937Z" fill="#F7941E" fill-opacity="0.2"/>
<path d="M104.242 56.0937C106.026 56.0937 107.472 54.6474 107.472 52.8633C107.472 51.0791 106.026 49.6328 104.242 49.6328C102.458 49.6328 101.011 51.0791 101.011 52.8633C101.011 54.6474 102.458 56.0937 104.242 56.0937Z" fill="#F7941E" fill-opacity="0.2"/>
<path d="M121.37 56.0937C123.154 56.0937 124.6 54.6474 124.6 52.8633C124.6 51.0791 123.154 49.6328 121.37 49.6328C119.586 49.6328 118.14 51.0791 118.14 52.8633C118.14 54.6474 119.586 56.0937 121.37 56.0937Z" fill="#F7941E" fill-opacity="0.2"/>
<path d="M138.498 56.0937C140.283 56.0937 141.729 54.6474 141.729 52.8633C141.729 51.0791 140.283 49.6328 138.498 49.6328C136.714 49.6328 135.268 51.0791 135.268 52.8633C135.268 54.6474 136.714 56.0937 138.498 56.0937Z" fill="#F7941E" fill-opacity="0.2"/>
<path d="M155.627 56.0937C157.411 56.0937 158.857 54.6474 158.857 52.8633C158.857 51.0791 157.411 49.6328 155.627 49.6328C153.843 49.6328 152.396 51.0791 152.396 52.8633C152.396 54.6474 153.843 56.0937 155.627 56.0937Z" fill="#F7941E" fill-opacity="0.2"/>
<path d="M172.755 56.0937C174.54 56.0937 175.986 54.6474 175.986 52.8633C175.986 51.0791 174.54 49.6328 172.755 49.6328C170.971 49.6328 169.525 51.0791 169.525 52.8633C169.525 54.6474 170.971 56.0937 172.755 56.0937Z" fill="#F7941E" fill-opacity="0.2"/>
<path d="M189.884 56.0937C191.668 56.0937 193.114 54.6474 193.114 52.8633C193.114 51.0791 191.668 49.6328 189.884 49.6328C188.1 49.6328 186.653 51.0791 186.653 52.8633C186.653 54.6474 188.1 56.0937 189.884 56.0937Z" fill="#F7941E" fill-opacity="0.2"/>
<path d="M207.016 56.0937C208.8 56.0937 210.246 54.6474 210.246 52.8633C210.246 51.0791 208.8 49.6328 207.016 49.6328C205.232 49.6328 203.785 51.0791 203.785 52.8633C203.785 54.6474 205.232 56.0937 207.016 56.0937Z" fill="#F7941E" fill-opacity="0.2"/>
<path d="M224.144 56.0937C225.928 56.0937 227.374 54.6474 227.374 52.8633C227.374 51.0791 225.928 49.6328 224.144 49.6328C222.36 49.6328 220.913 51.0791 220.913 52.8633C220.913 54.6474 222.36 56.0937 224.144 56.0937Z" fill="#F7941E" fill-opacity="0.2"/>
<path d="M241.273 55.1439C242.532 55.1439 243.553 54.1231 243.553 52.8639C243.553 51.6047 242.532 50.584 241.273 50.584C240.014 50.584 238.993 51.6047 238.993 52.8639C238.993 54.1231 240.014 55.1439 241.273 55.1439Z" fill="#F7941E" fill-opacity="0.2"/>
<path d="M258.401 52.9108C258.427 52.9108 258.448 52.8894 258.448 52.8631C258.448 52.8367 258.427 52.8154 258.401 52.8154C258.374 52.8154 258.353 52.8367 258.353 52.8631C258.353 52.8894 258.374 52.9108 258.401 52.9108Z" fill="#F7941E" fill-opacity="0.2"/>
<path d="M18.5995 71.4209C19.3869 71.4209 20.0254 70.7825 20.0254 69.9951C20.0254 69.2077 19.3869 68.5693 18.5995 68.5693C17.8121 68.5693 17.1738 69.2077 17.1738 69.9951C17.1738 70.7825 17.8121 71.4209 18.5995 71.4209Z" fill="#F7941E" fill-opacity="0.2"/>
<path d="M35.7277 73.2246C37.5118 73.2246 38.9581 71.7782 38.9581 69.9941C38.9581 68.21 37.5118 66.7637 35.7277 66.7637C33.9435 66.7637 32.4971 68.21 32.4971 69.9941C32.4971 71.7782 33.9435 73.2246 35.7277 73.2246Z" fill="#F7941E" fill-opacity="0.2"/>
<path d="M52.8559 73.2246C54.64 73.2246 56.0863 71.7782 56.0863 69.9941C56.0863 68.21 54.64 66.7637 52.8559 66.7637C51.0718 66.7637 49.6255 68.21 49.6255 69.9941C49.6255 71.7782 51.0718 73.2246 52.8559 73.2246Z" fill="#F7941E" fill-opacity="0.2"/>
<path d="M69.9848 73.2246C71.7689 73.2246 73.2152 71.7782 73.2152 69.9941C73.2152 68.21 71.7689 66.7637 69.9848 66.7637C68.2007 66.7637 66.7544 68.21 66.7544 69.9941C66.7544 71.7782 68.2007 73.2246 69.9848 73.2246Z" fill="#F7941E" fill-opacity="0.2"/>
<path d="M87.1132 73.2246C88.8973 73.2246 90.3438 71.7782 90.3438 69.9941C90.3438 68.21 88.8973 66.7637 87.1132 66.7637C85.3291 66.7637 83.8828 68.21 83.8828 69.9941C83.8828 71.7782 85.3291 73.2246 87.1132 73.2246Z" fill="#F7941E" fill-opacity="0.2"/>
<path d="M104.242 73.2246C106.026 73.2246 107.472 71.7782 107.472 69.9941C107.472 68.21 106.026 66.7637 104.242 66.7637C102.458 66.7637 101.011 68.21 101.011 69.9941C101.011 71.7782 102.458 73.2246 104.242 73.2246Z" fill="#F7941E" fill-opacity="0.2"/>
<path d="M121.37 73.2246C123.154 73.2246 124.6 71.7782 124.6 69.9941C124.6 68.21 123.154 66.7637 121.37 66.7637C119.586 66.7637 118.14 68.21 118.14 69.9941C118.14 71.7782 119.586 73.2246 121.37 73.2246Z" fill="#F7941E" fill-opacity="0.2"/>
<path d="M138.498 73.2246C140.283 73.2246 141.729 71.7782 141.729 69.9941C141.729 68.21 140.283 66.7637 138.498 66.7637C136.714 66.7637 135.268 68.21 135.268 69.9941C135.268 71.7782 136.714 73.2246 138.498 73.2246Z" fill="#F7941E" fill-opacity="0.2"/>
<path d="M155.627 73.2246C157.411 73.2246 158.857 71.7782 158.857 69.9941C158.857 68.21 157.411 66.7637 155.627 66.7637C153.843 66.7637 152.396 68.21 152.396 69.9941C152.396 71.7782 153.843 73.2246 155.627 73.2246Z" fill="#F7941E" fill-opacity="0.2"/>
<path d="M172.755 73.2246C174.54 73.2246 175.986 71.7782 175.986 69.9941C175.986 68.21 174.54 66.7637 172.755 66.7637C170.971 66.7637 169.525 68.21 169.525 69.9941C169.525 71.7782 170.971 73.2246 172.755 73.2246Z" fill="#F7941E" fill-opacity="0.2"/>
<path d="M189.884 73.2246C191.668 73.2246 193.114 71.7782 193.114 69.9941C193.114 68.21 191.668 66.7637 189.884 66.7637C188.1 66.7637 186.653 68.21 186.653 69.9941C186.653 71.7782 188.1 73.2246 189.884 73.2246Z" fill="#F7941E" fill-opacity="0.2"/>
<path d="M207.016 73.2246C208.8 73.2246 210.246 71.7782 210.246 69.9941C210.246 68.21 208.8 66.7637 207.016 66.7637C205.232 66.7637 203.785 68.21 203.785 69.9941C203.785 71.7782 205.232 73.2246 207.016 73.2246Z" fill="#F7941E" fill-opacity="0.2"/>
<path d="M224.144 73.2246C225.928 73.2246 227.374 71.7782 227.374 69.9941C227.374 68.21 225.928 66.7637 224.144 66.7637C222.36 66.7637 220.913 68.21 220.913 69.9941C220.913 71.7782 222.36 73.2246 224.144 73.2246Z" fill="#F7941E" fill-opacity="0.2"/>
<path d="M241.272 73.2246C243.057 73.2246 244.503 71.7782 244.503 69.9941C244.503 68.21 243.057 66.7637 241.272 66.7637C239.488 66.7637 238.042 68.21 238.042 69.9941C238.042 71.7782 239.488 73.2246 241.272 73.2246Z" fill="#F7941E" fill-opacity="0.2"/>
<path d="M258.401 71.3248C259.135 71.3248 259.73 70.7296 259.73 69.9953C259.73 69.2611 259.135 68.6659 258.401 68.6659C257.667 68.6659 257.071 69.2611 257.071 69.9953C257.071 70.7296 257.667 71.3248 258.401 71.3248Z" fill="#F7941E" fill-opacity="0.2"/>
<path d="M1.47075 87.222C1.52395 87.222 1.56718 87.1789 1.56718 87.1257C1.56718 87.0725 1.52395 87.0294 1.47075 87.0294C1.41754 87.0294 1.37451 87.0725 1.37451 87.1257C1.37451 87.1789 1.41754 87.222 1.47075 87.222Z" fill="#F7941E" fill-opacity="0.2"/>
<path d="M18.5997 89.9767C20.1728 89.9767 21.4481 88.7015 21.4481 87.1284C21.4481 85.5554 20.1728 84.2801 18.5997 84.2801C17.0266 84.2801 15.7515 85.5554 15.7515 87.1284C15.7515 88.7015 17.0266 89.9767 18.5997 89.9767Z" fill="#F7941E" fill-opacity="0.2"/>
<path d="M35.7277 90.3564C37.5118 90.3564 38.9581 88.9101 38.9581 87.126C38.9581 85.3418 37.5118 83.8955 35.7277 83.8955C33.9435 83.8955 32.4971 85.3418 32.4971 87.126C32.4971 88.9101 33.9435 90.3564 35.7277 90.3564Z" fill="#F7941E" fill-opacity="0.2"/>
<path d="M52.8559 90.3564C54.64 90.3564 56.0863 88.9101 56.0863 87.126C56.0863 85.3418 54.64 83.8955 52.8559 83.8955C51.0718 83.8955 49.6255 85.3418 49.6255 87.126C49.6255 88.9101 51.0718 90.3564 52.8559 90.3564Z" fill="#F7941E" fill-opacity="0.2"/>
<path d="M69.9848 90.3564C71.7689 90.3564 73.2152 88.9101 73.2152 87.126C73.2152 85.3418 71.7689 83.8955 69.9848 83.8955C68.2007 83.8955 66.7544 85.3418 66.7544 87.126C66.7544 88.9101 68.2007 90.3564 69.9848 90.3564Z" fill="#F7941E" fill-opacity="0.2"/>
<path d="M87.1132 90.3564C88.8973 90.3564 90.3438 88.9101 90.3438 87.126C90.3438 85.3418 88.8973 83.8955 87.1132 83.8955C85.3291 83.8955 83.8828 85.3418 83.8828 87.126C83.8828 88.9101 85.3291 90.3564 87.1132 90.3564Z" fill="#F7941E" fill-opacity="0.2"/>
<path d="M104.242 90.3564C106.026 90.3564 107.472 88.9101 107.472 87.126C107.472 85.3418 106.026 83.8955 104.242 83.8955C102.458 83.8955 101.011 85.3418 101.011 87.126C101.011 88.9101 102.458 90.3564 104.242 90.3564Z" fill="#F7941E" fill-opacity="0.2"/>
<path d="M121.37 90.3564C123.154 90.3564 124.6 88.9101 124.6 87.126C124.6 85.3418 123.154 83.8955 121.37 83.8955C119.586 83.8955 118.14 85.3418 118.14 87.126C118.14 88.9101 119.586 90.3564 121.37 90.3564Z" fill="#F7941E" fill-opacity="0.2"/>
<path d="M138.498 90.3564C140.283 90.3564 141.729 88.9101 141.729 87.126C141.729 85.3418 140.283 83.8955 138.498 83.8955C136.714 83.8955 135.268 85.3418 135.268 87.126C135.268 88.9101 136.714 90.3564 138.498 90.3564Z" fill="#F7941E" fill-opacity="0.2"/>
<path d="M155.627 90.3564C157.411 90.3564 158.857 88.9101 158.857 87.126C158.857 85.3418 157.411 83.8955 155.627 83.8955C153.843 83.8955 152.396 85.3418 152.396 87.126C152.396 88.9101 153.843 90.3564 155.627 90.3564Z" fill="#F7941E" fill-opacity="0.2"/>
<path d="M172.755 90.3564C174.54 90.3564 175.986 88.9101 175.986 87.126C175.986 85.3418 174.54 83.8955 172.755 83.8955C170.971 83.8955 169.525 85.3418 169.525 87.126C169.525 88.9101 170.971 90.3564 172.755 90.3564Z" fill="#F7941E" fill-opacity="0.2"/>
<path d="M189.884 90.3564C191.668 90.3564 193.114 88.9101 193.114 87.126C193.114 85.3418 191.668 83.8955 189.884 83.8955C188.1 83.8955 186.653 85.3418 186.653 87.126C186.653 88.9101 188.1 90.3564 189.884 90.3564Z" fill="#F7941E" fill-opacity="0.2"/>
<path d="M207.016 90.3564C208.8 90.3564 210.246 88.9101 210.246 87.126C210.246 85.3418 208.8 83.8955 207.016 83.8955C205.232 83.8955 203.785 85.3418 203.785 87.126C203.785 88.9101 205.232 90.3564 207.016 90.3564Z" fill="#F7941E" fill-opacity="0.2"/>
<path d="M224.144 90.3564C225.928 90.3564 227.374 88.9101 227.374 87.126C227.374 85.3418 225.928 83.8955 224.144 83.8955C222.36 83.8955 220.913 85.3418 220.913 87.126C220.913 88.9101 222.36 90.3564 224.144 90.3564Z" fill="#F7941E" fill-opacity="0.2"/>
<path d="M241.272 90.3564C243.057 90.3564 244.503 88.9101 244.503 87.126C244.503 85.3418 243.057 83.8955 241.272 83.8955C239.488 83.8955 238.042 85.3418 238.042 87.126C238.042 88.9101 239.488 90.3564 241.272 90.3564Z" fill="#F7941E" fill-opacity="0.2"/>
<path d="M258.401 89.929C259.949 89.929 261.204 88.6738 261.204 87.1256C261.204 85.5773 259.949 84.3222 258.401 84.3222C256.853 84.3222 255.598 85.5773 255.598 87.1256C255.598 88.6738 256.853 89.929 258.401 89.929Z" fill="#F7941E" fill-opacity="0.2"/>
<path d="M275.53 87.222C275.583 87.222 275.626 87.1789 275.626 87.1257C275.626 87.0725 275.583 87.0294 275.53 87.0294C275.476 87.0294 275.433 87.0725 275.433 87.1257C275.433 87.1789 275.476 87.222 275.53 87.222Z" fill="#F7941E" fill-opacity="0.2"/>
<path d="M1.47097 105.063C1.91612 105.063 2.2769 104.702 2.2769 104.257C2.2769 103.812 1.91612 103.451 1.47097 103.451C1.02583 103.451 0.665039 103.812 0.665039 104.257C0.665039 104.702 1.02583 105.063 1.47097 105.063Z" fill="#F7941E" fill-opacity="0.2"/>
<path d="M18.5995 107.487C20.3837 107.487 21.8301 106.041 21.8301 104.257C21.8301 102.473 20.3837 101.026 18.5995 101.026C16.8154 101.026 15.3691 102.473 15.3691 104.257C15.3691 106.041 16.8154 107.487 18.5995 107.487Z" fill="#F7941E" fill-opacity="0.2"/>
<path d="M35.7277 107.487C37.5118 107.487 38.9581 106.041 38.9581 104.257C38.9581 102.473 37.5118 101.026 35.7277 101.026C33.9435 101.026 32.4971 102.473 32.4971 104.257C32.4971 106.041 33.9435 107.487 35.7277 107.487Z" fill="#F7941E" fill-opacity="0.2"/>
<path d="M52.8559 107.487C54.64 107.487 56.0863 106.041 56.0863 104.257C56.0863 102.473 54.64 101.026 52.8559 101.026C51.0718 101.026 49.6255 102.473 49.6255 104.257C49.6255 106.041 51.0718 107.487 52.8559 107.487Z" fill="#F7941E" fill-opacity="0.2"/>
<path d="M69.9848 107.487C71.7689 107.487 73.2152 106.041 73.2152 104.257C73.2152 102.473 71.7689 101.026 69.9848 101.026C68.2007 101.026 66.7544 102.473 66.7544 104.257C66.7544 106.041 68.2007 107.487 69.9848 107.487Z" fill="#F7941E" fill-opacity="0.2"/>
<path d="M87.1132 107.487C88.8973 107.487 90.3438 106.041 90.3438 104.257C90.3438 102.473 88.8973 101.026 87.1132 101.026C85.3291 101.026 83.8828 102.473 83.8828 104.257C83.8828 106.041 85.3291 107.487 87.1132 107.487Z" fill="#F7941E" fill-opacity="0.2"/>
<path d="M104.242 107.487C106.026 107.487 107.472 106.041 107.472 104.257C107.472 102.473 106.026 101.026 104.242 101.026C102.458 101.026 101.011 102.473 101.011 104.257C101.011 106.041 102.458 107.487 104.242 107.487Z" fill="#F7941E" fill-opacity="0.2"/>
<path d="M121.37 107.487C123.154 107.487 124.6 106.041 124.6 104.257C124.6 102.473 123.154 101.026 121.37 101.026C119.586 101.026 118.14 102.473 118.14 104.257C118.14 106.041 119.586 107.487 121.37 107.487Z" fill="#F7941E" fill-opacity="0.2"/>
<path d="M138.498 107.487C140.283 107.487 141.729 106.041 141.729 104.257C141.729 102.473 140.283 101.026 138.498 101.026C136.714 101.026 135.268 102.473 135.268 104.257C135.268 106.041 136.714 107.487 138.498 107.487Z" fill="#F7941E" fill-opacity="0.2"/>
<path d="M155.627 107.487C157.411 107.487 158.857 106.041 158.857 104.257C158.857 102.473 157.411 101.026 155.627 101.026C153.843 101.026 152.396 102.473 152.396 104.257C152.396 106.041 153.843 107.487 155.627 107.487Z" fill="#F7941E" fill-opacity="0.2"/>
<path d="M172.755 107.487C174.54 107.487 175.986 106.041 175.986 104.257C175.986 102.473 174.54 101.026 172.755 101.026C170.971 101.026 169.525 102.473 169.525 104.257C169.525 106.041 170.971 107.487 172.755 107.487Z" fill="#F7941E" fill-opacity="0.2"/>
<path d="M189.884 107.487C191.668 107.487 193.114 106.041 193.114 104.257C193.114 102.473 191.668 101.026 189.884 101.026C188.1 101.026 186.653 102.473 186.653 104.257C186.653 106.041 188.1 107.487 189.884 107.487Z" fill="#F7941E" fill-opacity="0.2"/>
<path d="M207.016 107.487C208.8 107.487 210.246 106.041 210.246 104.257C210.246 102.473 208.8 101.026 207.016 101.026C205.232 101.026 203.785 102.473 203.785 104.257C203.785 106.041 205.232 107.487 207.016 107.487Z" fill="#F7941E" fill-opacity="0.2"/>
<path d="M224.144 107.487C225.928 107.487 227.374 106.041 227.374 104.257C227.374 102.473 225.928 101.026 224.144 101.026C222.36 101.026 220.913 102.473 220.913 104.257C220.913 106.041 222.36 107.487 224.144 107.487Z" fill="#F7941E" fill-opacity="0.2"/>
<path d="M241.272 107.487C243.057 107.487 244.503 106.041 244.503 104.257C244.503 102.473 243.057 101.026 241.272 101.026C239.488 101.026 238.042 102.473 238.042 104.257C238.042 106.041 239.488 107.487 241.272 107.487Z" fill="#F7941E" fill-opacity="0.2"/>
<path d="M258.401 107.487C260.185 107.487 261.631 106.041 261.631 104.257C261.631 102.473 260.185 101.026 258.401 101.026C256.617 101.026 255.17 102.473 255.17 104.257C255.17 106.041 256.617 107.487 258.401 107.487Z" fill="#F7941E" fill-opacity="0.2"/>
<path d="M275.529 104.974C275.923 104.974 276.242 104.654 276.242 104.261C276.242 103.867 275.923 103.548 275.529 103.548C275.136 103.548 274.816 103.867 274.816 104.261C274.816 104.654 275.136 104.974 275.529 104.974Z" fill="#F7941E" fill-opacity="0.2"/>
<path d="M1.47042 122.769C2.23125 122.769 2.84807 122.152 2.84807 121.391C2.84807 120.631 2.23125 120.014 1.47042 120.014C0.709597 120.014 0.0927734 120.631 0.0927734 121.391C0.0927734 122.152 0.709597 122.769 1.47042 122.769Z" fill="#F7941E" fill-opacity="0.2"/>
<path d="M18.5995 124.618C20.3837 124.618 21.8301 123.172 21.8301 121.388C21.8301 119.604 20.3837 118.157 18.5995 118.157C16.8154 118.157 15.3691 119.604 15.3691 121.388C15.3691 123.172 16.8154 124.618 18.5995 124.618Z" fill="#F7941E" fill-opacity="0.2"/>
<path d="M35.7277 124.618C37.5118 124.618 38.9581 123.172 38.9581 121.388C38.9581 119.604 37.5118 118.157 35.7277 118.157C33.9435 118.157 32.4971 119.604 32.4971 121.388C32.4971 123.172 33.9435 124.618 35.7277 124.618Z" fill="#F7941E" fill-opacity="0.2"/>
<path d="M52.8559 124.618C54.64 124.618 56.0863 123.172 56.0863 121.388C56.0863 119.604 54.64 118.157 52.8559 118.157C51.0718 118.157 49.6255 119.604 49.6255 121.388C49.6255 123.172 51.0718 124.618 52.8559 124.618Z" fill="#F7941E" fill-opacity="0.2"/>
<path d="M69.9848 124.618C71.7689 124.618 73.2152 123.172 73.2152 121.388C73.2152 119.604 71.7689 118.157 69.9848 118.157C68.2007 118.157 66.7544 119.604 66.7544 121.388C66.7544 123.172 68.2007 124.618 69.9848 124.618Z" fill="#F7941E" fill-opacity="0.2"/>
<path d="M87.1132 124.618C88.8973 124.618 90.3438 123.172 90.3438 121.388C90.3438 119.604 88.8973 118.157 87.1132 118.157C85.3291 118.157 83.8828 119.604 83.8828 121.388C83.8828 123.172 85.3291 124.618 87.1132 124.618Z" fill="#F7941E" fill-opacity="0.2"/>
<path d="M104.242 124.618C106.026 124.618 107.472 123.172 107.472 121.388C107.472 119.604 106.026 118.157 104.242 118.157C102.458 118.157 101.011 119.604 101.011 121.388C101.011 123.172 102.458 124.618 104.242 124.618Z" fill="#F7941E" fill-opacity="0.2"/>
<path d="M121.37 124.618C123.154 124.618 124.6 123.172 124.6 121.388C124.6 119.604 123.154 118.157 121.37 118.157C119.586 118.157 118.14 119.604 118.14 121.388C118.14 123.172 119.586 124.618 121.37 124.618Z" fill="#F7941E" fill-opacity="0.2"/>
<path d="M138.498 124.618C140.283 124.618 141.729 123.172 141.729 121.388C141.729 119.604 140.283 118.157 138.498 118.157C136.714 118.157 135.268 119.604 135.268 121.388C135.268 123.172 136.714 124.618 138.498 124.618Z" fill="#F7941E" fill-opacity="0.2"/>
<path d="M155.627 124.618C157.411 124.618 158.857 123.172 158.857 121.388C158.857 119.604 157.411 118.157 155.627 118.157C153.843 118.157 152.396 119.604 152.396 121.388C152.396 123.172 153.843 124.618 155.627 124.618Z" fill="#F7941E" fill-opacity="0.2"/>
<path d="M172.755 124.618C174.54 124.618 175.986 123.172 175.986 121.388C175.986 119.604 174.54 118.157 172.755 118.157C170.971 118.157 169.525 119.604 169.525 121.388C169.525 123.172 170.971 124.618 172.755 124.618Z" fill="#F7941E" fill-opacity="0.2"/>
<path d="M189.884 124.618C191.668 124.618 193.114 123.172 193.114 121.388C193.114 119.604 191.668 118.157 189.884 118.157C188.1 118.157 186.653 119.604 186.653 121.388C186.653 123.172 188.1 124.618 189.884 124.618Z" fill="#F7941E" fill-opacity="0.2"/>
<path d="M207.016 124.618C208.8 124.618 210.246 123.172 210.246 121.388C210.246 119.604 208.8 118.157 207.016 118.157C205.232 118.157 203.785 119.604 203.785 121.388C203.785 123.172 205.232 124.618 207.016 124.618Z" fill="#F7941E" fill-opacity="0.2"/>
<path d="M224.144 124.618C225.928 124.618 227.374 123.172 227.374 121.388C227.374 119.604 225.928 118.157 224.144 118.157C222.36 118.157 220.913 119.604 220.913 121.388C220.913 123.172 222.36 124.618 224.144 124.618Z" fill="#F7941E" fill-opacity="0.2"/>
<path d="M241.272 124.618C243.057 124.618 244.503 123.172 244.503 121.388C244.503 119.604 243.057 118.157 241.272 118.157C239.488 118.157 238.042 119.604 238.042 121.388C238.042 123.172 239.488 124.618 241.272 124.618Z" fill="#F7941E" fill-opacity="0.2"/>
<path d="M258.401 124.618C260.185 124.618 261.631 123.172 261.631 121.388C261.631 119.604 260.185 118.157 258.401 118.157C256.617 118.157 255.17 119.604 255.17 121.388C255.17 123.172 256.617 124.618 258.401 124.618Z" fill="#F7941E" fill-opacity="0.2"/>
<path d="M275.53 122.72C276.264 122.72 276.859 122.125 276.859 121.391C276.859 120.657 276.264 120.061 275.53 120.061C274.795 120.061 274.2 120.657 274.2 121.391C274.2 122.125 274.795 122.72 275.53 122.72Z" fill="#F7941E" fill-opacity="0.2"/>
<path d="M1.47075 139.992C2.28301 139.992 2.9415 139.334 2.9415 138.522C2.9415 137.709 2.28301 137.051 1.47075 137.051C0.65849 137.051 0 137.709 0 138.522C0 139.334 0.65849 139.992 1.47075 139.992Z" fill="#F7941E" fill-opacity="0.2"/>
<path d="M18.5995 141.752C20.3837 141.752 21.8301 140.306 21.8301 138.521C21.8301 136.737 20.3837 135.291 18.5995 135.291C16.8154 135.291 15.3691 136.737 15.3691 138.521C15.3691 140.306 16.8154 141.752 18.5995 141.752Z" fill="#F7941E" fill-opacity="0.2"/>
<path d="M35.7277 141.752C37.5118 141.752 38.9581 140.306 38.9581 138.521C38.9581 136.737 37.5118 135.291 35.7277 135.291C33.9435 135.291 32.4971 136.737 32.4971 138.521C32.4971 140.306 33.9435 141.752 35.7277 141.752Z" fill="#F7941E" fill-opacity="0.2"/>
<path d="M52.8559 141.752C54.64 141.752 56.0863 140.306 56.0863 138.521C56.0863 136.737 54.64 135.291 52.8559 135.291C51.0718 135.291 49.6255 136.737 49.6255 138.521C49.6255 140.306 51.0718 141.752 52.8559 141.752Z" fill="#F7941E" fill-opacity="0.2"/>
<path d="M69.9848 141.752C71.7689 141.752 73.2152 140.306 73.2152 138.521C73.2152 136.737 71.7689 135.291 69.9848 135.291C68.2007 135.291 66.7544 136.737 66.7544 138.521C66.7544 140.306 68.2007 141.752 69.9848 141.752Z" fill="#F7941E" fill-opacity="0.2"/>
<path d="M87.1132 141.752C88.8973 141.752 90.3438 140.306 90.3438 138.521C90.3438 136.737 88.8973 135.291 87.1132 135.291C85.3291 135.291 83.8828 136.737 83.8828 138.521C83.8828 140.306 85.3291 141.752 87.1132 141.752Z" fill="#F7941E" fill-opacity="0.2"/>
<path d="M104.242 141.752C106.026 141.752 107.472 140.306 107.472 138.521C107.472 136.737 106.026 135.291 104.242 135.291C102.458 135.291 101.011 136.737 101.011 138.521C101.011 140.306 102.458 141.752 104.242 141.752Z" fill="#F7941E" fill-opacity="0.2"/>
<path d="M121.37 141.752C123.154 141.752 124.6 140.306 124.6 138.521C124.6 136.737 123.154 135.291 121.37 135.291C119.586 135.291 118.14 136.737 118.14 138.521C118.14 140.306 119.586 141.752 121.37 141.752Z" fill="#F7941E" fill-opacity="0.2"/>
<path d="M138.498 141.752C140.283 141.752 141.729 140.306 141.729 138.521C141.729 136.737 140.283 135.291 138.498 135.291C136.714 135.291 135.268 136.737 135.268 138.521C135.268 140.306 136.714 141.752 138.498 141.752Z" fill="#F7941E" fill-opacity="0.2"/>
<path d="M155.627 141.752C157.411 141.752 158.857 140.306 158.857 138.521C158.857 136.737 157.411 135.291 155.627 135.291C153.843 135.291 152.396 136.737 152.396 138.521C152.396 140.306 153.843 141.752 155.627 141.752Z" fill="#F7941E" fill-opacity="0.2"/>
<path d="M172.755 141.752C174.54 141.752 175.986 140.306 175.986 138.521C175.986 136.737 174.54 135.291 172.755 135.291C170.971 135.291 169.525 136.737 169.525 138.521C169.525 140.306 170.971 141.752 172.755 141.752Z" fill="#F7941E" fill-opacity="0.2"/>
<path d="M189.884 141.752C191.668 141.752 193.114 140.306 193.114 138.521C193.114 136.737 191.668 135.291 189.884 135.291C188.1 135.291 186.653 136.737 186.653 138.521C186.653 140.306 188.1 141.752 189.884 141.752Z" fill="#F7941E" fill-opacity="0.2"/>
<path d="M207.016 141.752C208.8 141.752 210.246 140.306 210.246 138.521C210.246 136.737 208.8 135.291 207.016 135.291C205.232 135.291 203.785 136.737 203.785 138.521C203.785 140.306 205.232 141.752 207.016 141.752Z" fill="#F7941E" fill-opacity="0.2"/>
<path d="M224.144 141.752C225.928 141.752 227.374 140.306 227.374 138.521C227.374 136.737 225.928 135.291 224.144 135.291C222.36 135.291 220.913 136.737 220.913 138.521C220.913 140.306 222.36 141.752 224.144 141.752Z" fill="#F7941E" fill-opacity="0.2"/>
<path d="M241.272 141.752C243.057 141.752 244.503 140.306 244.503 138.521C244.503 136.737 243.057 135.291 241.272 135.291C239.488 135.291 238.042 136.737 238.042 138.521C238.042 140.306 239.488 141.752 241.272 141.752Z" fill="#F7941E" fill-opacity="0.2"/>
<path d="M258.401 141.752C260.185 141.752 261.631 140.306 261.631 138.521C261.631 136.737 260.185 135.291 258.401 135.291C256.617 135.291 255.17 136.737 255.17 138.521C255.17 140.306 256.617 141.752 258.401 141.752Z" fill="#F7941E" fill-opacity="0.2"/>
<path d="M275.529 139.992C276.342 139.992 277 139.334 277 138.522C277 137.709 276.342 137.051 275.529 137.051C274.717 137.051 274.059 137.709 274.059 138.522C274.059 139.334 274.717 139.992 275.529 139.992Z" fill="#F7941E" fill-opacity="0.2"/>
<path d="M1.47042 157.03C2.23125 157.03 2.84807 156.414 2.84807 155.653C2.84807 154.892 2.23125 154.275 1.47042 154.275C0.709597 154.275 0.0927734 154.892 0.0927734 155.653C0.0927734 156.414 0.709597 157.03 1.47042 157.03Z" fill="#F7941E" fill-opacity="0.2"/>
<path d="M18.599 158.883C20.3832 158.883 21.8296 157.436 21.8296 155.652C21.8296 153.868 20.3832 152.422 18.599 152.422C16.8149 152.422 15.3687 153.868 15.3687 155.652C15.3687 157.436 16.8149 158.883 18.599 158.883Z" fill="#F7941E" fill-opacity="0.2"/>
<path d="M35.7277 158.883C37.5118 158.883 38.9581 157.436 38.9581 155.652C38.9581 153.868 37.5118 152.422 35.7277 152.422C33.9435 152.422 32.4971 153.868 32.4971 155.652C32.4971 157.436 33.9435 158.883 35.7277 158.883Z" fill="#F7941E" fill-opacity="0.2"/>
<path d="M52.8559 158.883C54.64 158.883 56.0863 157.436 56.0863 155.652C56.0863 153.868 54.64 152.422 52.8559 152.422C51.0718 152.422 49.6255 153.868 49.6255 155.652C49.6255 157.436 51.0718 158.883 52.8559 158.883Z" fill="#F7941E" fill-opacity="0.2"/>
<path d="M69.9848 158.883C71.7689 158.883 73.2152 157.436 73.2152 155.652C73.2152 153.868 71.7689 152.422 69.9848 152.422C68.2007 152.422 66.7544 153.868 66.7544 155.652C66.7544 157.436 68.2007 158.883 69.9848 158.883Z" fill="#F7941E" fill-opacity="0.2"/>
<path d="M87.1132 158.883C88.8973 158.883 90.3438 157.436 90.3438 155.652C90.3438 153.868 88.8973 152.422 87.1132 152.422C85.3291 152.422 83.8828 153.868 83.8828 155.652C83.8828 157.436 85.3291 158.883 87.1132 158.883Z" fill="#F7941E" fill-opacity="0.2"/>
<path d="M104.242 158.883C106.026 158.883 107.472 157.436 107.472 155.652C107.472 153.868 106.026 152.422 104.242 152.422C102.458 152.422 101.011 153.868 101.011 155.652C101.011 157.436 102.458 158.883 104.242 158.883Z" fill="#F7941E" fill-opacity="0.2"/>
<path d="M121.37 158.883C123.154 158.883 124.6 157.436 124.6 155.652C124.6 153.868 123.154 152.422 121.37 152.422C119.586 152.422 118.14 153.868 118.14 155.652C118.14 157.436 119.586 158.883 121.37 158.883Z" fill="#F7941E" fill-opacity="0.2"/>
<path d="M138.498 158.883C140.283 158.883 141.729 157.436 141.729 155.652C141.729 153.868 140.283 152.422 138.498 152.422C136.714 152.422 135.268 153.868 135.268 155.652C135.268 157.436 136.714 158.883 138.498 158.883Z" fill="#F7941E" fill-opacity="0.2"/>
<path d="M155.627 158.883C157.411 158.883 158.857 157.436 158.857 155.652C158.857 153.868 157.411 152.422 155.627 152.422C153.843 152.422 152.396 153.868 152.396 155.652C152.396 157.436 153.843 158.883 155.627 158.883Z" fill="#F7941E" fill-opacity="0.2"/>
<path d="M172.755 158.883C174.54 158.883 175.986 157.436 175.986 155.652C175.986 153.868 174.54 152.422 172.755 152.422C170.971 152.422 169.525 153.868 169.525 155.652C169.525 157.436 170.971 158.883 172.755 158.883Z" fill="#F7941E" fill-opacity="0.2"/>
<path d="M189.884 158.883C191.668 158.883 193.115 157.436 193.115 155.652C193.115 153.868 191.668 152.422 189.884 152.422C188.1 152.422 186.654 153.868 186.654 155.652C186.654 157.436 188.1 158.883 189.884 158.883Z" fill="#F7941E" fill-opacity="0.2"/>
<path d="M207.016 158.883C208.8 158.883 210.246 157.436 210.246 155.652C210.246 153.868 208.8 152.422 207.016 152.422C205.232 152.422 203.785 153.868 203.785 155.652C203.785 157.436 205.232 158.883 207.016 158.883Z" fill="#F7941E" fill-opacity="0.2"/>
<path d="M224.144 158.883C225.928 158.883 227.375 157.436 227.375 155.652C227.375 153.868 225.928 152.422 224.144 152.422C222.36 152.422 220.914 153.868 220.914 155.652C220.914 157.436 222.36 158.883 224.144 158.883Z" fill="#F7941E" fill-opacity="0.2"/>
<path d="M241.273 158.883C243.057 158.883 244.503 157.436 244.503 155.652C244.503 153.868 243.057 152.422 241.273 152.422C239.489 152.422 238.042 153.868 238.042 155.652C238.042 157.436 239.489 158.883 241.273 158.883Z" fill="#F7941E" fill-opacity="0.2"/>
<path d="M258.401 158.883C260.185 158.883 261.631 157.436 261.631 155.652C261.631 153.868 260.185 152.422 258.401 152.422C256.617 152.422 255.17 153.868 255.17 155.652C255.17 157.436 256.617 158.883 258.401 158.883Z" fill="#F7941E" fill-opacity="0.2"/>
<path d="M275.529 156.934C276.237 156.934 276.811 156.36 276.811 155.652C276.811 154.945 276.237 154.371 275.529 154.371C274.822 154.371 274.248 154.945 274.248 155.652C274.248 156.36 274.822 156.934 275.529 156.934Z" fill="#F7941E" fill-opacity="0.2"/>
<path d="M1.47101 173.545C1.89133 173.545 2.23206 173.204 2.23206 172.784C2.23206 172.363 1.89133 172.022 1.47101 172.022C1.05069 172.022 0.709961 172.363 0.709961 172.784C0.709961 173.204 1.05069 173.545 1.47101 173.545Z" fill="#F7941E" fill-opacity="0.2"/>
<path d="M18.599 176.014C20.3832 176.014 21.8296 174.567 21.8296 172.783C21.8296 170.999 20.3832 169.553 18.599 169.553C16.8149 169.553 15.3687 170.999 15.3687 172.783C15.3687 174.567 16.8149 176.014 18.599 176.014Z" fill="#F7941E" fill-opacity="0.2"/>
<path d="M35.7277 176.014C37.5118 176.014 38.9581 174.567 38.9581 172.783C38.9581 170.999 37.5118 169.553 35.7277 169.553C33.9435 169.553 32.4971 170.999 32.4971 172.783C32.4971 174.567 33.9435 176.014 35.7277 176.014Z" fill="#F7941E" fill-opacity="0.2"/>
<path d="M52.8559 176.014C54.64 176.014 56.0863 174.567 56.0863 172.783C56.0863 170.999 54.64 169.553 52.8559 169.553C51.0718 169.553 49.6255 170.999 49.6255 172.783C49.6255 174.567 51.0718 176.014 52.8559 176.014Z" fill="#F7941E" fill-opacity="0.2"/>
<path d="M69.9848 176.014C71.7689 176.014 73.2152 174.567 73.2152 172.783C73.2152 170.999 71.7689 169.553 69.9848 169.553C68.2007 169.553 66.7544 170.999 66.7544 172.783C66.7544 174.567 68.2007 176.014 69.9848 176.014Z" fill="#F7941E" fill-opacity="0.2"/>
<path d="M87.1132 176.014C88.8973 176.014 90.3438 174.567 90.3438 172.783C90.3438 170.999 88.8973 169.553 87.1132 169.553C85.3291 169.553 83.8828 170.999 83.8828 172.783C83.8828 174.567 85.3291 176.014 87.1132 176.014Z" fill="#F7941E" fill-opacity="0.2"/>
<path d="M104.242 176.014C106.026 176.014 107.472 174.567 107.472 172.783C107.472 170.999 106.026 169.553 104.242 169.553C102.458 169.553 101.011 170.999 101.011 172.783C101.011 174.567 102.458 176.014 104.242 176.014Z" fill="#F7941E" fill-opacity="0.2"/>
<path d="M121.37 176.014C123.154 176.014 124.6 174.567 124.6 172.783C124.6 170.999 123.154 169.553 121.37 169.553C119.586 169.553 118.14 170.999 118.14 172.783C118.14 174.567 119.586 176.014 121.37 176.014Z" fill="#F7941E" fill-opacity="0.2"/>
<path d="M138.498 176.014C140.283 176.014 141.729 174.567 141.729 172.783C141.729 170.999 140.283 169.553 138.498 169.553C136.714 169.553 135.268 170.999 135.268 172.783C135.268 174.567 136.714 176.014 138.498 176.014Z" fill="#F7941E" fill-opacity="0.2"/>
<path d="M155.627 176.014C157.411 176.014 158.857 174.567 158.857 172.783C158.857 170.999 157.411 169.553 155.627 169.553C153.843 169.553 152.396 170.999 152.396 172.783C152.396 174.567 153.843 176.014 155.627 176.014Z" fill="#F7941E" fill-opacity="0.2"/>
<path d="M172.755 176.014C174.54 176.014 175.986 174.567 175.986 172.783C175.986 170.999 174.54 169.553 172.755 169.553C170.971 169.553 169.525 170.999 169.525 172.783C169.525 174.567 170.971 176.014 172.755 176.014Z" fill="#F7941E" fill-opacity="0.2"/>
<path d="M189.884 176.014C191.668 176.014 193.115 174.567 193.115 172.783C193.115 170.999 191.668 169.553 189.884 169.553C188.1 169.553 186.654 170.999 186.654 172.783C186.654 174.567 188.1 176.014 189.884 176.014Z" fill="#F7941E" fill-opacity="0.2"/>
<path d="M207.016 176.014C208.8 176.014 210.246 174.567 210.246 172.783C210.246 170.999 208.8 169.553 207.016 169.553C205.232 169.553 203.785 170.999 203.785 172.783C203.785 174.567 205.232 176.014 207.016 176.014Z" fill="#F7941E" fill-opacity="0.2"/>
<path d="M224.144 176.014C225.928 176.014 227.375 174.567 227.375 172.783C227.375 170.999 225.928 169.553 224.144 169.553C222.36 169.553 220.914 170.999 220.914 172.783C220.914 174.567 222.36 176.014 224.144 176.014Z" fill="#F7941E" fill-opacity="0.2"/>
<path d="M241.273 176.014C243.057 176.014 244.503 174.567 244.503 172.783C244.503 170.999 243.057 169.553 241.273 169.553C239.489 169.553 238.042 170.999 238.042 172.783C238.042 174.567 239.489 176.014 241.273 176.014Z" fill="#F7941E" fill-opacity="0.2"/>
<path d="M258.401 176.014C260.185 176.014 261.631 174.567 261.631 172.783C261.631 170.999 260.185 169.553 258.401 169.553C256.617 169.553 255.17 170.999 255.17 172.783C255.17 174.567 256.617 176.014 258.401 176.014Z" fill="#F7941E" fill-opacity="0.2"/>
<path d="M275.529 173.496C275.923 173.496 276.242 173.177 276.242 172.783C276.242 172.389 275.923 172.07 275.529 172.07C275.136 172.07 274.816 172.389 274.816 172.783C274.816 173.177 275.136 173.496 275.529 173.496Z" fill="#F7941E" fill-opacity="0.2"/>
<path d="M1.47058 189.962C1.49692 189.962 1.51831 189.94 1.51831 189.914C1.51831 189.888 1.49692 189.866 1.47058 189.866C1.44425 189.866 1.42285 189.888 1.42285 189.914C1.42285 189.94 1.44425 189.962 1.47058 189.962Z" fill="#F7941E" fill-opacity="0.2"/>
<path d="M18.5992 192.762C20.1723 192.762 21.4476 191.487 21.4476 189.914C21.4476 188.341 20.1723 187.065 18.5992 187.065C17.0261 187.065 15.751 188.341 15.751 189.914C15.751 191.487 17.0261 192.762 18.5992 192.762Z" fill="#F7941E" fill-opacity="0.2"/>
<path d="M35.7277 193.145C37.5118 193.145 38.9581 191.699 38.9581 189.915C38.9581 188.131 37.5118 186.684 35.7277 186.684C33.9435 186.684 32.4971 188.131 32.4971 189.915C32.4971 191.699 33.9435 193.145 35.7277 193.145Z" fill="#F7941E" fill-opacity="0.2"/>
<path d="M52.8559 193.145C54.6413 193.145 56.0863 191.7 56.0863 189.915C56.0863 188.13 54.6413 186.684 52.8559 186.684C51.0705 186.684 49.6255 188.13 49.6255 189.915C49.6255 191.7 51.0737 193.145 52.8559 193.145Z" fill="#F7941E" fill-opacity="0.2"/>
<path d="M69.9848 193.145C71.7689 193.145 73.2152 191.699 73.2152 189.915C73.2152 188.131 71.7689 186.684 69.9848 186.684C68.2007 186.684 66.7544 188.131 66.7544 189.915C66.7544 191.699 68.2007 193.145 69.9848 193.145Z" fill="#F7941E" fill-opacity="0.2"/>
<path d="M87.1132 193.145C88.8973 193.145 90.3438 191.699 90.3438 189.915C90.3438 188.131 88.8973 186.684 87.1132 186.684C85.3291 186.684 83.8828 188.131 83.8828 189.915C83.8828 191.699 85.3291 193.145 87.1132 193.145Z" fill="#F7941E" fill-opacity="0.2"/>
<path d="M104.242 193.145C106.026 193.145 107.472 191.699 107.472 189.915C107.472 188.131 106.026 186.684 104.242 186.684C102.458 186.684 101.011 188.131 101.011 189.915C101.011 191.699 102.458 193.145 104.242 193.145Z" fill="#F7941E" fill-opacity="0.2"/>
<path d="M121.37 193.145C123.154 193.145 124.6 191.699 124.6 189.915C124.6 188.131 123.154 186.684 121.37 186.684C119.586 186.684 118.14 188.131 118.14 189.915C118.14 191.699 119.586 193.145 121.37 193.145Z" fill="#F7941E" fill-opacity="0.2"/>
<path d="M138.498 193.145C140.283 193.145 141.729 191.699 141.729 189.915C141.729 188.131 140.283 186.684 138.498 186.684C136.714 186.684 135.268 188.131 135.268 189.915C135.268 191.699 136.714 193.145 138.498 193.145Z" fill="#F7941E" fill-opacity="0.2"/>
<path d="M155.627 193.145C157.411 193.145 158.857 191.699 158.857 189.915C158.857 188.131 157.411 186.684 155.627 186.684C153.843 186.684 152.396 188.131 152.396 189.915C152.396 191.699 153.843 193.145 155.627 193.145Z" fill="#F7941E" fill-opacity="0.2"/>
<path d="M172.755 193.145C174.54 193.145 175.986 191.699 175.986 189.915C175.986 188.131 174.54 186.684 172.755 186.684C170.971 186.684 169.525 188.131 169.525 189.915C169.525 191.699 170.971 193.145 172.755 193.145Z" fill="#F7941E" fill-opacity="0.2"/>
<path d="M189.884 193.145C191.668 193.145 193.115 191.699 193.115 189.915C193.115 188.131 191.668 186.684 189.884 186.684C188.1 186.684 186.654 188.131 186.654 189.915C186.654 191.699 188.1 193.145 189.884 193.145Z" fill="#F7941E" fill-opacity="0.2"/>
<path d="M207.016 193.145C208.8 193.145 210.246 191.699 210.246 189.915C210.246 188.131 208.8 186.684 207.016 186.684C205.232 186.684 203.785 188.131 203.785 189.915C203.785 191.699 205.232 193.145 207.016 193.145Z" fill="#F7941E" fill-opacity="0.2"/>
<path d="M224.144 193.145C225.928 193.145 227.375 191.699 227.375 189.915C227.375 188.131 225.928 186.684 224.144 186.684C222.36 186.684 220.914 188.131 220.914 189.915C220.914 191.699 222.36 193.145 224.144 193.145Z" fill="#F7941E" fill-opacity="0.2"/>
<path d="M241.273 193.145C243.057 193.145 244.503 191.699 244.503 189.915C244.503 188.131 243.057 186.684 241.273 186.684C239.489 186.684 238.042 188.131 238.042 189.915C238.042 191.699 239.489 193.145 241.273 193.145Z" fill="#F7941E" fill-opacity="0.2"/>
<path d="M258.401 192.718C259.949 192.718 261.204 191.463 261.204 189.915C261.204 188.366 259.949 187.111 258.401 187.111C256.853 187.111 255.598 188.366 255.598 189.915C255.598 191.463 256.853 192.718 258.401 192.718Z" fill="#F7941E" fill-opacity="0.2"/>
<path d="M275.53 190.011C275.583 190.011 275.626 189.968 275.626 189.915C275.626 189.861 275.583 189.818 275.53 189.818C275.476 189.818 275.433 189.861 275.433 189.915C275.433 189.968 275.476 190.011 275.53 190.011Z" fill="#F7941E" fill-opacity="0.2"/>
<path d="M18.5995 208.375C19.3337 208.375 19.9289 207.78 19.9289 207.046C19.9289 206.312 19.3337 205.717 18.5995 205.717C17.8652 205.717 17.27 206.312 17.27 207.046C17.27 207.78 17.8652 208.375 18.5995 208.375Z" fill="#F7941E" fill-opacity="0.2"/>
<path d="M35.7277 210.275C37.5118 210.275 38.9581 208.829 38.9581 207.045C38.9581 205.261 37.5118 203.814 35.7277 203.814C33.9435 203.814 32.4971 205.261 32.4971 207.045C32.4971 208.829 33.9435 210.275 35.7277 210.275Z" fill="#F7941E" fill-opacity="0.2"/>
<path d="M52.8559 210.275C54.64 210.275 56.0863 208.829 56.0863 207.045C56.0863 205.261 54.64 203.814 52.8559 203.814C51.0718 203.814 49.6255 205.261 49.6255 207.045C49.6255 208.829 51.0718 210.275 52.8559 210.275Z" fill="#F7941E" fill-opacity="0.2"/>
<path d="M69.9848 210.275C71.7689 210.275 73.2152 208.829 73.2152 207.045C73.2152 205.261 71.7689 203.814 69.9848 203.814C68.2007 203.814 66.7544 205.261 66.7544 207.045C66.7544 208.829 68.2007 210.275 69.9848 210.275Z" fill="#F7941E" fill-opacity="0.2"/>
<path d="M87.1132 210.275C88.8973 210.275 90.3438 208.829 90.3438 207.045C90.3438 205.261 88.8973 203.814 87.1132 203.814C85.3291 203.814 83.8828 205.261 83.8828 207.045C83.8828 208.829 85.3291 210.275 87.1132 210.275Z" fill="#F7941E" fill-opacity="0.2"/>
<path d="M104.242 210.275C106.026 210.275 107.472 208.829 107.472 207.045C107.472 205.261 106.026 203.814 104.242 203.814C102.458 203.814 101.011 205.261 101.011 207.045C101.011 208.829 102.458 210.275 104.242 210.275Z" fill="#F7941E" fill-opacity="0.2"/>
<path d="M121.37 210.275C123.154 210.275 124.6 208.829 124.6 207.045C124.6 205.261 123.154 203.814 121.37 203.814C119.586 203.814 118.14 205.261 118.14 207.045C118.14 208.829 119.586 210.275 121.37 210.275Z" fill="#F7941E" fill-opacity="0.2"/>
<path d="M138.498 210.275C140.283 210.275 141.729 208.829 141.729 207.045C141.729 205.261 140.283 203.814 138.498 203.814C136.714 203.814 135.268 205.261 135.268 207.045C135.268 208.829 136.714 210.275 138.498 210.275Z" fill="#F7941E" fill-opacity="0.2"/>
<path d="M155.627 210.275C157.411 210.275 158.857 208.829 158.857 207.045C158.857 205.261 157.411 203.814 155.627 203.814C153.843 203.814 152.396 205.261 152.396 207.045C152.396 208.829 153.843 210.275 155.627 210.275Z" fill="#F7941E" fill-opacity="0.2"/>
<path d="M172.755 210.275C174.54 210.275 175.986 208.829 175.986 207.045C175.986 205.261 174.54 203.814 172.755 203.814C170.971 203.814 169.525 205.261 169.525 207.045C169.525 208.829 170.971 210.275 172.755 210.275Z" fill="#F7941E" fill-opacity="0.2"/>
<path d="M189.884 210.275C191.668 210.275 193.114 208.829 193.114 207.045C193.114 205.261 191.668 203.814 189.884 203.814C188.1 203.814 186.653 205.261 186.653 207.045C186.653 208.829 188.1 210.275 189.884 210.275Z" fill="#F7941E" fill-opacity="0.2"/>
<path d="M207.016 210.275C208.8 210.275 210.246 208.829 210.246 207.045C210.246 205.261 208.8 203.814 207.016 203.814C205.232 203.814 203.785 205.261 203.785 207.045C203.785 208.829 205.232 210.275 207.016 210.275Z" fill="#F7941E" fill-opacity="0.2"/>
<path d="M224.144 210.275C225.928 210.275 227.374 208.829 227.374 207.045C227.374 205.261 225.928 203.814 224.144 203.814C222.36 203.814 220.913 205.261 220.913 207.045C220.913 208.829 222.36 210.275 224.144 210.275Z" fill="#F7941E" fill-opacity="0.2"/>
<path d="M241.272 210.275C243.057 210.275 244.503 208.829 244.503 207.045C244.503 205.261 243.057 203.814 241.272 203.814C239.488 203.814 238.042 205.261 238.042 207.045C238.042 208.829 239.488 210.275 241.272 210.275Z" fill="#F7941E" fill-opacity="0.2"/>
<path d="M258.401 208.327C259.108 208.327 259.682 207.753 259.682 207.046C259.682 206.338 259.108 205.765 258.401 205.765C257.693 205.765 257.12 206.338 257.12 207.046C257.12 207.753 257.693 208.327 258.401 208.327Z" fill="#F7941E" fill-opacity="0.2"/>
<path d="M18.5988 224.223C18.6251 224.223 18.6465 224.202 18.6465 224.176C18.6465 224.149 18.6251 224.128 18.5988 224.128C18.5725 224.128 18.5513 224.149 18.5513 224.176C18.5513 224.202 18.5725 224.223 18.5988 224.223Z" fill="#F7941E" fill-opacity="0.2"/>
<path d="M35.7278 226.457C36.9869 226.457 38.0076 225.436 38.0076 224.177C38.0076 222.917 36.9869 221.897 35.7278 221.897C34.4686 221.897 33.4478 222.917 33.4478 224.177C33.4478 225.436 34.4686 226.457 35.7278 226.457Z" fill="#F7941E" fill-opacity="0.2"/>
<path d="M52.8559 227.407C54.64 227.407 56.0863 225.961 56.0863 224.177C56.0863 222.393 54.64 220.946 52.8559 220.946C51.0718 220.946 49.6255 222.393 49.6255 224.177C49.6255 225.961 51.0718 227.407 52.8559 227.407Z" fill="#F7941E" fill-opacity="0.2"/>
<path d="M69.9848 227.407C71.7689 227.407 73.2152 225.961 73.2152 224.177C73.2152 222.393 71.7689 220.946 69.9848 220.946C68.2007 220.946 66.7544 222.393 66.7544 224.177C66.7544 225.961 68.2007 227.407 69.9848 227.407Z" fill="#F7941E" fill-opacity="0.2"/>
<path d="M87.1132 227.407C88.8973 227.407 90.3438 225.961 90.3438 224.177C90.3438 222.393 88.8973 220.946 87.1132 220.946C85.3291 220.946 83.8828 222.393 83.8828 224.177C83.8828 225.961 85.3291 227.407 87.1132 227.407Z" fill="#F7941E" fill-opacity="0.2"/>
<path d="M104.242 227.407C106.026 227.407 107.472 225.961 107.472 224.177C107.472 222.393 106.026 220.946 104.242 220.946C102.458 220.946 101.011 222.393 101.011 224.177C101.011 225.961 102.458 227.407 104.242 227.407Z" fill="#F7941E" fill-opacity="0.2"/>
<path d="M121.37 227.407C123.154 227.407 124.6 225.961 124.6 224.177C124.6 222.393 123.154 220.946 121.37 220.946C119.586 220.946 118.14 222.393 118.14 224.177C118.14 225.961 119.586 227.407 121.37 227.407Z" fill="#F7941E" fill-opacity="0.2"/>
<path d="M138.498 227.407C140.283 227.407 141.729 225.961 141.729 224.177C141.729 222.393 140.283 220.946 138.498 220.946C136.714 220.946 135.268 222.393 135.268 224.177C135.268 225.961 136.714 227.407 138.498 227.407Z" fill="#F7941E" fill-opacity="0.2"/>
<path d="M155.627 227.407C157.411 227.407 158.857 225.961 158.857 224.177C158.857 222.393 157.411 220.946 155.627 220.946C153.843 220.946 152.396 222.393 152.396 224.177C152.396 225.961 153.843 227.407 155.627 227.407Z" fill="#F7941E" fill-opacity="0.2"/>
<path d="M172.755 227.407C174.54 227.407 175.986 225.961 175.986 224.177C175.986 222.393 174.54 220.946 172.755 220.946C170.971 220.946 169.525 222.393 169.525 224.177C169.525 225.961 170.971 227.407 172.755 227.407Z" fill="#F7941E" fill-opacity="0.2"/>
<path d="M189.884 227.407C191.668 227.407 193.114 225.961 193.114 224.177C193.114 222.393 191.668 220.946 189.884 220.946C188.1 220.946 186.653 222.393 186.653 224.177C186.653 225.961 188.1 227.407 189.884 227.407Z" fill="#F7941E" fill-opacity="0.2"/>
<path d="M207.016 227.407C208.8 227.407 210.246 225.961 210.246 224.177C210.246 222.393 208.8 220.946 207.016 220.946C205.232 220.946 203.785 222.393 203.785 224.177C203.785 225.961 205.232 227.407 207.016 227.407Z" fill="#F7941E" fill-opacity="0.2"/>
<path d="M224.144 227.407C225.928 227.407 227.374 225.961 227.374 224.177C227.374 222.393 225.928 220.946 224.144 220.946C222.36 220.946 220.913 222.393 220.913 224.177C220.913 225.961 222.36 227.407 224.144 227.407Z" fill="#F7941E" fill-opacity="0.2"/>
<path d="M241.273 226.408C242.505 226.408 243.505 225.409 243.505 224.176C243.505 222.944 242.505 221.944 241.273 221.944C240.04 221.944 239.041 222.944 239.041 224.176C239.041 225.409 240.04 226.408 241.273 226.408Z" fill="#F7941E" fill-opacity="0.2"/>
<path d="M258.401 224.223C258.427 224.223 258.448 224.202 258.448 224.176C258.448 224.149 258.427 224.128 258.401 224.128C258.374 224.128 258.353 224.149 258.353 224.176C258.353 224.202 258.374 224.223 258.401 224.223Z" fill="#F7941E" fill-opacity="0.2"/>
<path d="M35.7277 241.449C35.8058 241.449 35.8689 241.386 35.8689 241.308C35.8689 241.23 35.8058 241.167 35.7277 241.167C35.6497 241.167 35.5864 241.23 35.5864 241.308C35.5864 241.386 35.6497 241.449 35.7277 241.449Z" fill="#F7941E" fill-opacity="0.2"/>
<path d="M52.8562 243.587C54.1154 243.587 55.136 242.566 55.136 241.307C55.136 240.048 54.1154 239.027 52.8562 239.027C51.597 239.027 50.5762 240.048 50.5762 241.307C50.5762 242.566 51.597 243.587 52.8562 243.587Z" fill="#F7941E" fill-opacity="0.2"/>
<path d="M69.9848 244.538C71.7689 244.538 73.2152 243.092 73.2152 241.308C73.2152 239.524 71.7689 238.077 69.9848 238.077C68.2007 238.077 66.7544 239.524 66.7544 241.308C66.7544 243.092 68.2007 244.538 69.9848 244.538Z" fill="#F7941E" fill-opacity="0.2"/>
<path d="M87.1132 244.538C88.8973 244.538 90.3438 243.092 90.3438 241.308C90.3438 239.524 88.8973 238.077 87.1132 238.077C85.3291 238.077 83.8828 239.524 83.8828 241.308C83.8828 243.092 85.3291 244.538 87.1132 244.538Z" fill="#F7941E" fill-opacity="0.2"/>
<path d="M104.242 244.538C106.026 244.538 107.472 243.092 107.472 241.308C107.472 239.524 106.026 238.077 104.242 238.077C102.458 238.077 101.011 239.524 101.011 241.308C101.011 243.092 102.458 244.538 104.242 244.538Z" fill="#F7941E" fill-opacity="0.2"/>
<path d="M121.37 244.538C123.154 244.538 124.6 243.092 124.6 241.308C124.6 239.524 123.154 238.077 121.37 238.077C119.586 238.077 118.14 239.524 118.14 241.308C118.14 243.092 119.586 244.538 121.37 244.538Z" fill="#F7941E" fill-opacity="0.2"/>
<path d="M138.498 244.538C140.283 244.538 141.729 243.092 141.729 241.308C141.729 239.524 140.283 238.077 138.498 238.077C136.714 238.077 135.268 239.524 135.268 241.308C135.268 243.092 136.714 244.538 138.498 244.538Z" fill="#F7941E" fill-opacity="0.2"/>
<path d="M155.627 244.538C157.411 244.538 158.857 243.092 158.857 241.308C158.857 239.524 157.411 238.077 155.627 238.077C153.843 238.077 152.396 239.524 152.396 241.308C152.396 243.092 153.843 244.538 155.627 244.538Z" fill="#F7941E" fill-opacity="0.2"/>
<path d="M172.755 244.538C174.54 244.538 175.986 243.092 175.986 241.308C175.986 239.524 174.54 238.077 172.755 238.077C170.971 238.077 169.525 239.524 169.525 241.308C169.525 243.092 170.971 244.538 172.755 244.538Z" fill="#F7941E" fill-opacity="0.2"/>
<path d="M189.884 244.538C191.668 244.538 193.115 243.092 193.115 241.308C193.115 239.524 191.668 238.077 189.884 238.077C188.1 238.077 186.654 239.524 186.654 241.308C186.654 243.092 188.1 244.538 189.884 244.538Z" fill="#F7941E" fill-opacity="0.2"/>
<path d="M207.016 244.538C208.8 244.538 210.246 243.092 210.246 241.308C210.246 239.524 208.8 238.077 207.016 238.077C205.232 238.077 203.785 239.524 203.785 241.308C203.785 243.092 205.232 244.538 207.016 244.538Z" fill="#F7941E" fill-opacity="0.2"/>
<path d="M224.144 243.54C225.377 243.54 226.376 242.541 226.376 241.308C226.376 240.075 225.377 239.076 224.144 239.076C222.912 239.076 221.913 240.075 221.913 241.308C221.913 242.541 222.912 243.54 224.144 243.54Z" fill="#F7941E" fill-opacity="0.2"/>
<path d="M241.273 241.497C241.377 241.497 241.462 241.412 241.462 241.307C241.462 241.203 241.377 241.118 241.273 241.118C241.168 241.118 241.083 241.203 241.083 241.307C241.083 241.412 241.168 241.497 241.273 241.497Z" fill="#F7941E" fill-opacity="0.2"/>
<path d="M52.8558 258.486C52.8822 258.486 52.9036 258.465 52.9036 258.438C52.9036 258.412 52.8822 258.391 52.8558 258.391C52.8295 258.391 52.8081 258.412 52.8081 258.438C52.8081 258.465 52.8295 258.486 52.8558 258.486Z" fill="#F7941E" fill-opacity="0.2"/>
<path d="M69.9847 259.768C70.7189 259.768 71.3141 259.173 71.3141 258.439C71.3141 257.704 70.7189 257.109 69.9847 257.109C69.2505 257.109 68.6553 257.704 68.6553 258.439C68.6553 259.173 69.2505 259.768 69.9847 259.768Z" fill="#F7941E" fill-opacity="0.2"/>
<path d="M87.1129 261.242C88.6611 261.242 89.9164 259.987 89.9164 258.439C89.9164 256.891 88.6611 255.636 87.1129 255.636C85.5646 255.636 84.3096 256.891 84.3096 258.439C84.3096 259.987 85.5646 261.242 87.1129 261.242Z" fill="#F7941E" fill-opacity="0.2"/>
<path d="M104.242 261.669C106.026 261.669 107.472 260.223 107.472 258.438C107.472 256.654 106.026 255.208 104.242 255.208C102.458 255.208 101.011 256.654 101.011 258.438C101.011 260.223 102.458 261.669 104.242 261.669Z" fill="#F7941E" fill-opacity="0.2"/>
<path d="M121.37 261.669C123.154 261.669 124.6 260.223 124.6 258.438C124.6 256.654 123.154 255.208 121.37 255.208C119.586 255.208 118.14 256.654 118.14 258.438C118.14 260.223 119.586 261.669 121.37 261.669Z" fill="#F7941E" fill-opacity="0.2"/>
<path d="M138.498 261.669C140.283 261.669 141.729 260.223 141.729 258.438C141.729 256.654 140.283 255.208 138.498 255.208C136.714 255.208 135.268 256.654 135.268 258.438C135.268 260.223 136.714 261.669 138.498 261.669Z" fill="#F7941E" fill-opacity="0.2"/>
<path d="M155.627 261.669C157.411 261.669 158.857 260.223 158.857 258.438C158.857 256.654 157.411 255.208 155.627 255.208C153.843 255.208 152.396 256.654 152.396 258.438C152.396 260.223 153.843 261.669 155.627 261.669Z" fill="#F7941E" fill-opacity="0.2"/>
<path d="M172.755 261.669C174.54 261.669 175.986 260.223 175.986 258.438C175.986 256.654 174.54 255.208 172.755 255.208C170.971 255.208 169.525 256.654 169.525 258.438C169.525 260.223 170.971 261.669 172.755 261.669Z" fill="#F7941E" fill-opacity="0.2"/>
<path d="M189.883 261.242C191.432 261.242 192.687 259.987 192.687 258.439C192.687 256.891 191.432 255.636 189.883 255.636C188.335 255.636 187.08 256.891 187.08 258.439C187.08 259.987 188.335 261.242 189.883 261.242Z" fill="#F7941E" fill-opacity="0.2"/>
<path d="M207.016 259.72C207.723 259.72 208.297 259.146 208.297 258.438C208.297 257.731 207.723 257.157 207.016 257.157C206.308 257.157 205.734 257.731 205.734 258.438C205.734 259.146 206.308 259.72 207.016 259.72Z" fill="#F7941E" fill-opacity="0.2"/>
<path d="M224.143 258.486C224.17 258.486 224.191 258.465 224.191 258.438C224.191 258.412 224.17 258.391 224.143 258.391C224.117 258.391 224.096 258.412 224.096 258.438C224.096 258.465 224.117 258.486 224.143 258.486Z" fill="#F7941E" fill-opacity="0.2"/>
<path d="M87.1133 275.666C87.1665 275.666 87.2098 275.623 87.2098 275.57C87.2098 275.517 87.1665 275.474 87.1133 275.474C87.0601 275.474 87.0171 275.517 87.0171 275.57C87.0171 275.623 87.0601 275.666 87.1133 275.666Z" fill="#F7941E" fill-opacity="0.2"/>
<path d="M104.241 276.282C104.635 276.282 104.954 275.963 104.954 275.569C104.954 275.176 104.635 274.857 104.241 274.857C103.848 274.857 103.528 275.176 103.528 275.569C103.528 275.963 103.848 276.282 104.241 276.282Z" fill="#F7941E" fill-opacity="0.2"/>
<path d="M121.37 276.899C122.104 276.899 122.699 276.304 122.699 275.569C122.699 274.835 122.104 274.24 121.37 274.24C120.636 274.24 120.041 274.835 120.041 275.569C120.041 276.304 120.636 276.899 121.37 276.899Z" fill="#F7941E" fill-opacity="0.2"/>
<path d="M138.498 277.04C139.31 277.04 139.969 276.382 139.969 275.57C139.969 274.757 139.31 274.099 138.498 274.099C137.686 274.099 137.027 274.757 137.027 275.57C137.027 276.382 137.686 277.04 138.498 277.04Z" fill="#F7941E" fill-opacity="0.2"/>
<path d="M155.627 276.899C156.361 276.899 156.956 276.304 156.956 275.569C156.956 274.835 156.361 274.24 155.627 274.24C154.893 274.24 154.297 274.835 154.297 275.569C154.297 276.304 154.893 276.899 155.627 276.899Z" fill="#F7941E" fill-opacity="0.2"/>
<path d="M172.756 276.282C173.15 276.282 173.469 275.963 173.469 275.569C173.469 275.176 173.15 274.857 172.756 274.857C172.362 274.857 172.043 275.176 172.043 275.569C172.043 275.963 172.362 276.282 172.756 276.282Z" fill="#F7941E" fill-opacity="0.2"/>
<path d="M189.884 275.666C189.937 275.666 189.98 275.623 189.98 275.57C189.98 275.517 189.937 275.474 189.884 275.474C189.831 275.474 189.788 275.517 189.788 275.57C189.788 275.623 189.831 275.666 189.884 275.666Z" fill="#F7941E" fill-opacity="0.2"/>
</svg>
