<svg width="97" height="191" viewBox="0 0 97 191" fill="none" xmlns="http://www.w3.org/2000/svg">
<path d="M1.99905 2.0176C2.5562 2.0176 3.00787 1.56594 3.00787 1.0088C3.00787 0.451655 2.5562 0 1.99905 0C1.44191 0 0.990234 0.451655 0.990234 1.0088C0.990234 1.56594 1.44191 2.0176 1.99905 2.0176Z" fill="#2455A6" fill-opacity="0.2"/>
<path d="M13.7476 1.95415C14.2694 1.95415 14.6925 1.53109 14.6925 1.00923C14.6925 0.487359 14.2694 0.0643005 13.7476 0.0643005C13.2257 0.0643005 12.8027 0.487359 12.8027 1.00923C12.8027 1.53109 13.2257 1.95415 13.7476 1.95415Z" fill="#2455A6" fill-opacity="0.2"/>
<path d="M25.4966 1.53134C25.7849 1.53134 26.0186 1.29763 26.0186 1.00932C26.0186 0.72102 25.7849 0.487305 25.4966 0.487305C25.2083 0.487305 24.9746 0.72102 24.9746 1.00932C24.9746 1.29763 25.2083 1.53134 25.4966 1.53134Z" fill="#2455A6" fill-opacity="0.2"/>
<path d="M37.2447 1.041C37.2627 1.041 37.2774 1.02636 37.2774 1.00829C37.2774 0.990228 37.2627 0.975586 37.2447 0.975586C37.2266 0.975586 37.2119 0.990228 37.2119 1.00829C37.2119 1.02636 37.2266 1.041 37.2447 1.041Z" fill="#2455A6" fill-opacity="0.2"/>
<path d="M1.999 14.9746C3.22277 14.9746 4.21479 13.9826 4.21479 12.7588C4.21479 11.535 3.22277 10.543 1.999 10.543C0.775225 10.543 -0.216797 11.535 -0.216797 12.7588C-0.216797 13.9826 0.775225 14.9746 1.999 14.9746Z" fill="#2455A6" fill-opacity="0.2"/>
<path d="M13.7475 14.9746C14.9713 14.9746 15.9635 13.9826 15.9635 12.7588C15.9635 11.535 14.9713 10.543 13.7475 10.543C12.5238 10.543 11.5317 11.535 11.5317 12.7588C11.5317 13.9826 12.5238 14.9746 13.7475 14.9746Z" fill="#2455A6" fill-opacity="0.2"/>
<path d="M25.4967 14.9746C26.7205 14.9746 27.7125 13.9826 27.7125 12.7588C27.7125 11.535 26.7205 10.543 25.4967 10.543C24.2729 10.543 23.2808 11.535 23.2808 12.7588C23.2808 13.9826 24.2729 14.9746 25.4967 14.9746Z" fill="#2455A6" fill-opacity="0.2"/>
<path d="M37.2453 14.7131C38.3243 14.7131 39.1991 13.8384 39.1991 12.7594C39.1991 11.6804 38.3243 10.8057 37.2453 10.8057C36.1663 10.8057 35.2915 11.6804 35.2915 12.7594C35.2915 13.8384 36.1663 14.7131 37.2453 14.7131Z" fill="#2455A6" fill-opacity="0.2"/>
<path d="M48.9964 13.6713C49.5 13.6713 49.9082 13.263 49.9082 12.7594C49.9082 12.2558 49.5 11.8475 48.9964 11.8475C48.4927 11.8475 48.0845 12.2558 48.0845 12.7594C48.0845 13.263 48.4927 13.6713 48.9964 13.6713Z" fill="#2455A6" fill-opacity="0.2"/>
<path d="M60.7447 12.7918C60.7627 12.7918 60.7774 12.7771 60.7774 12.7591C60.7774 12.741 60.7627 12.7264 60.7447 12.7264C60.7266 12.7264 60.7119 12.741 60.7119 12.7591C60.7119 12.7771 60.7266 12.7918 60.7447 12.7918Z" fill="#2455A6" fill-opacity="0.2"/>
<path d="M1.999 26.7256C3.22277 26.7256 4.21479 25.7335 4.21479 24.5098C4.21479 23.286 3.22277 22.2939 1.999 22.2939C0.775225 22.2939 -0.216797 23.286 -0.216797 24.5098C-0.216797 25.7335 0.775225 26.7256 1.999 26.7256Z" fill="#2455A6" fill-opacity="0.2"/>
<path d="M13.7475 26.7256C14.9713 26.7256 15.9635 25.7335 15.9635 24.5098C15.9635 23.286 14.9713 22.2939 13.7475 22.2939C12.5238 22.2939 11.5317 23.286 11.5317 24.5098C11.5317 25.7335 12.5238 26.7256 13.7475 26.7256Z" fill="#2455A6" fill-opacity="0.2"/>
<path d="M25.4967 26.7256C26.7205 26.7256 27.7125 25.7335 27.7125 24.5098C27.7125 23.286 26.7205 22.2939 25.4967 22.2939C24.2729 22.2939 23.2808 23.286 23.2808 24.5098C23.2808 25.7335 24.2729 26.7256 25.4967 26.7256Z" fill="#2455A6" fill-opacity="0.2"/>
<path d="M37.2453 26.7256C38.4691 26.7256 39.4611 25.7335 39.4611 24.5098C39.4611 23.286 38.4691 22.2939 37.2453 22.2939C36.0216 22.2939 35.0295 23.286 35.0295 24.5098C35.0295 25.7335 36.0216 26.7256 37.2453 26.7256Z" fill="#2455A6" fill-opacity="0.2"/>
<path d="M48.9962 26.7256C50.22 26.7256 51.212 25.7335 51.212 24.5098C51.212 23.286 50.22 22.2939 48.9962 22.2939C47.7724 22.2939 46.7803 23.286 46.7803 24.5098C46.7803 25.7335 47.7724 26.7256 48.9962 26.7256Z" fill="#2455A6" fill-opacity="0.2"/>
<path d="M60.7451 26.0739C61.6088 26.0739 62.3088 25.3737 62.3088 24.51C62.3088 23.6463 61.6088 22.9462 60.7451 22.9462C59.8814 22.9462 59.1812 23.6463 59.1812 24.51C59.1812 25.3737 59.8814 26.0739 60.7451 26.0739Z" fill="#2455A6" fill-opacity="0.2"/>
<path d="M72.4941 24.607C72.5477 24.607 72.5911 24.5636 72.5911 24.51C72.5911 24.4565 72.5477 24.4131 72.4941 24.4131C72.4406 24.4131 72.3972 24.4565 72.3972 24.51C72.3972 24.5636 72.4406 24.607 72.4941 24.607Z" fill="#2455A6" fill-opacity="0.2"/>
<path d="M1.999 38.4758C3.22277 38.4758 4.21479 37.4838 4.21479 36.26C4.21479 35.0362 3.22277 34.0442 1.999 34.0442C0.775225 34.0442 -0.216797 35.0362 -0.216797 36.26C-0.216797 37.4838 0.775225 38.4758 1.999 38.4758Z" fill="#2455A6" fill-opacity="0.2"/>
<path d="M13.7478 38.4758C14.9715 38.4758 15.9637 37.4838 15.9637 36.26C15.9637 35.0362 14.9715 34.0442 13.7478 34.0442C12.524 34.0442 11.532 35.0362 11.532 36.26C11.532 37.4838 12.524 38.4758 13.7478 38.4758Z" fill="#2455A6" fill-opacity="0.2"/>
<path d="M25.4967 38.4758C26.7205 38.4758 27.7125 37.4838 27.7125 36.26C27.7125 35.0362 26.7205 34.0442 25.4967 34.0442C24.2729 34.0442 23.2808 35.0362 23.2808 36.26C23.2808 37.4838 24.2729 38.4758 25.4967 38.4758Z" fill="#2455A6" fill-opacity="0.2"/>
<path d="M37.2453 38.4758C38.4691 38.4758 39.4611 37.4838 39.4611 36.26C39.4611 35.0362 38.4691 34.0442 37.2453 34.0442C36.0216 34.0442 35.0295 35.0362 35.0295 36.26C35.0295 37.4838 36.0216 38.4758 37.2453 38.4758Z" fill="#2455A6" fill-opacity="0.2"/>
<path d="M48.9964 38.4758C50.2202 38.4758 51.2122 37.4838 51.2122 36.26C51.2122 35.0362 50.2202 34.0442 48.9964 34.0442C47.7727 34.0442 46.7805 35.0362 46.7805 36.26C46.7805 37.4838 47.7727 38.4758 48.9964 38.4758Z" fill="#2455A6" fill-opacity="0.2"/>
<path d="M60.745 38.4758C61.9688 38.4758 62.9608 37.4838 62.9608 36.26C62.9608 35.0362 61.9688 34.0442 60.745 34.0442C59.5212 34.0442 58.5291 35.0362 58.5291 36.26C58.5291 37.4838 59.5212 38.4758 60.745 38.4758Z" fill="#2455A6" fill-opacity="0.2"/>
<path d="M72.4941 37.824C73.3578 37.824 74.058 37.1238 74.058 36.2601C74.058 35.3964 73.3578 34.6963 72.4941 34.6963C71.6304 34.6963 70.9302 35.3964 70.9302 36.2601C70.9302 37.1238 71.6304 37.824 72.4941 37.824Z" fill="#2455A6" fill-opacity="0.2"/>
<path d="M84.2423 36.293C84.2604 36.293 84.2751 36.2783 84.2751 36.2602C84.2751 36.2422 84.2604 36.2275 84.2423 36.2275C84.2243 36.2275 84.2097 36.2422 84.2097 36.2602C84.2097 36.2783 84.2243 36.293 84.2423 36.293Z" fill="#2455A6" fill-opacity="0.2"/>
<path d="M1.999 50.2266C3.22277 50.2266 4.21479 49.2345 4.21479 48.0107C4.21479 46.787 3.22277 45.7949 1.999 45.7949C0.775225 45.7949 -0.216797 46.787 -0.216797 48.0107C-0.216797 49.2345 0.775225 50.2266 1.999 50.2266Z" fill="#2455A6" fill-opacity="0.2"/>
<path d="M13.7475 50.2266C14.9713 50.2266 15.9635 49.2345 15.9635 48.0107C15.9635 46.787 14.9713 45.7949 13.7475 45.7949C12.5238 45.7949 11.5317 46.787 11.5317 48.0107C11.5317 49.2345 12.5238 50.2266 13.7475 50.2266Z" fill="#2455A6" fill-opacity="0.2"/>
<path d="M25.4967 50.2266C26.7205 50.2266 27.7125 49.2345 27.7125 48.0107C27.7125 46.787 26.7205 45.7949 25.4967 45.7949C24.2729 45.7949 23.2808 46.787 23.2808 48.0107C23.2808 49.2345 24.2729 50.2266 25.4967 50.2266Z" fill="#2455A6" fill-opacity="0.2"/>
<path d="M37.2453 50.2266C38.4691 50.2266 39.4611 49.2345 39.4611 48.0107C39.4611 46.787 38.4691 45.7949 37.2453 45.7949C36.0216 45.7949 35.0295 46.787 35.0295 48.0107C35.0295 49.2345 36.0216 50.2266 37.2453 50.2266Z" fill="#2455A6" fill-opacity="0.2"/>
<path d="M48.9962 50.2266C50.22 50.2266 51.212 49.2345 51.212 48.0107C51.212 46.787 50.22 45.7949 48.9962 45.7949C47.7724 45.7949 46.7803 46.787 46.7803 48.0107C46.7803 49.2345 47.7724 50.2266 48.9962 50.2266Z" fill="#2455A6" fill-opacity="0.2"/>
<path d="M60.745 50.2266C61.9688 50.2266 62.9608 49.2345 62.9608 48.0107C62.9608 46.787 61.9688 45.7949 60.745 45.7949C59.5212 45.7949 58.5291 46.787 58.5291 48.0107C58.5291 49.2345 59.5212 50.2266 60.745 50.2266Z" fill="#2455A6" fill-opacity="0.2"/>
<path d="M72.4939 50.2266C73.7176 50.2266 74.7097 49.2345 74.7097 48.0107C74.7097 46.787 73.7176 45.7949 72.4939 45.7949C71.2701 45.7949 70.2781 46.787 70.2781 48.0107C70.2781 49.2345 71.2701 50.2266 72.4939 50.2266Z" fill="#2455A6" fill-opacity="0.2"/>
<path d="M84.2425 48.9232C84.7461 48.9232 85.1543 48.5149 85.1543 48.0113C85.1543 47.5077 84.7461 47.0994 84.2425 47.0994C83.7388 47.0994 83.3306 47.5077 83.3306 48.0113C83.3306 48.5149 83.7388 48.9232 84.2425 48.9232Z" fill="#2455A6" fill-opacity="0.2"/>
<path d="M1.999 61.9776C3.22277 61.9776 4.21479 60.9855 4.21479 59.7617C4.21479 58.538 3.22277 57.5459 1.999 57.5459C0.775225 57.5459 -0.216797 58.538 -0.216797 59.7617C-0.216797 60.9855 0.775225 61.9776 1.999 61.9776Z" fill="#2455A6" fill-opacity="0.2"/>
<path d="M13.7475 61.9776C14.9713 61.9776 15.9635 60.9855 15.9635 59.7617C15.9635 58.538 14.9713 57.5459 13.7475 57.5459C12.5238 57.5459 11.5317 58.538 11.5317 59.7617C11.5317 60.9855 12.5238 61.9776 13.7475 61.9776Z" fill="#2455A6" fill-opacity="0.2"/>
<path d="M25.4967 61.9776C26.7205 61.9776 27.7125 60.9855 27.7125 59.7617C27.7125 58.538 26.7205 57.5459 25.4967 57.5459C24.2729 57.5459 23.2808 58.538 23.2808 59.7617C23.2808 60.9855 24.2729 61.9776 25.4967 61.9776Z" fill="#2455A6" fill-opacity="0.2"/>
<path d="M37.2453 61.9776C38.4691 61.9776 39.4611 60.9855 39.4611 59.7617C39.4611 58.538 38.4691 57.5459 37.2453 57.5459C36.0216 57.5459 35.0295 58.538 35.0295 59.7617C35.0295 60.9855 36.0216 61.9776 37.2453 61.9776Z" fill="#2455A6" fill-opacity="0.2"/>
<path d="M48.9962 61.9776C50.22 61.9776 51.212 60.9855 51.212 59.7617C51.212 58.538 50.22 57.5459 48.9962 57.5459C47.7724 57.5459 46.7803 58.538 46.7803 59.7617C46.7803 60.9855 47.7724 61.9776 48.9962 61.9776Z" fill="#2455A6" fill-opacity="0.2"/>
<path d="M60.745 61.9776C61.9688 61.9776 62.9608 60.9855 62.9608 59.7617C62.9608 58.538 61.9688 57.5459 60.745 57.5459C59.5212 57.5459 58.5291 58.538 58.5291 59.7617C58.5291 60.9855 59.5212 61.9776 60.745 61.9776Z" fill="#2455A6" fill-opacity="0.2"/>
<path d="M72.4939 61.9776C73.7176 61.9776 74.7097 60.9855 74.7097 59.7617C74.7097 58.538 73.7176 57.5459 72.4939 57.5459C71.2701 57.5459 70.2781 58.538 70.2781 59.7617C70.2781 60.9855 71.2701 61.9776 72.4939 61.9776Z" fill="#2455A6" fill-opacity="0.2"/>
<path d="M84.2427 61.6837C85.3047 61.6837 86.1657 60.8228 86.1657 59.7608C86.1657 58.6988 85.3047 57.8379 84.2427 57.8379C83.1807 57.8379 82.3198 58.6988 82.3198 59.7608C82.3198 60.8228 83.1807 61.6837 84.2427 61.6837Z" fill="#2455A6" fill-opacity="0.2"/>
<path d="M95.9914 59.8273C96.0279 59.8273 96.0574 59.7978 96.0574 59.7613C96.0574 59.7248 96.0279 59.6952 95.9914 59.6952C95.9549 59.6952 95.9253 59.7248 95.9253 59.7613C95.9253 59.7978 95.9549 59.8273 95.9914 59.8273Z" fill="#2455A6" fill-opacity="0.2"/>
<path d="M1.999 73.7277C3.22277 73.7277 4.21479 72.7356 4.21479 71.5119C4.21479 70.2881 3.22277 69.2961 1.999 69.2961C0.775225 69.2961 -0.216797 70.2881 -0.216797 71.5119C-0.216797 72.7356 0.775225 73.7277 1.999 73.7277Z" fill="#2455A6" fill-opacity="0.2"/>
<path d="M13.7478 73.7277C14.9715 73.7277 15.9637 72.7356 15.9637 71.5119C15.9637 70.2881 14.9715 69.2961 13.7478 69.2961C12.524 69.2961 11.532 70.2881 11.532 71.5119C11.532 72.7356 12.524 73.7277 13.7478 73.7277Z" fill="#2455A6" fill-opacity="0.2"/>
<path d="M25.4967 73.7277C26.7205 73.7277 27.7125 72.7356 27.7125 71.5119C27.7125 70.2881 26.7205 69.2961 25.4967 69.2961C24.2729 69.2961 23.2808 70.2881 23.2808 71.5119C23.2808 72.7356 24.2729 73.7277 25.4967 73.7277Z" fill="#2455A6" fill-opacity="0.2"/>
<path d="M37.2453 73.7277C38.4691 73.7277 39.4611 72.7356 39.4611 71.5119C39.4611 70.2881 38.4691 69.2961 37.2453 69.2961C36.0216 69.2961 35.0295 70.2881 35.0295 71.5119C35.0295 72.7356 36.0216 73.7277 37.2453 73.7277Z" fill="#2455A6" fill-opacity="0.2"/>
<path d="M48.9964 73.7277C50.2202 73.7277 51.2122 72.7356 51.2122 71.5119C51.2122 70.2881 50.2202 69.2961 48.9964 69.2961C47.7727 69.2961 46.7805 70.2881 46.7805 71.5119C46.7805 72.7356 47.7727 73.7277 48.9964 73.7277Z" fill="#2455A6" fill-opacity="0.2"/>
<path d="M60.745 73.7277C61.9688 73.7277 62.9608 72.7356 62.9608 71.5119C62.9608 70.2881 61.9688 69.2961 60.745 69.2961C59.5212 69.2961 58.5291 70.2881 58.5291 71.5119C58.5291 72.7356 59.5212 73.7277 60.745 73.7277Z" fill="#2455A6" fill-opacity="0.2"/>
<path d="M72.4939 73.7277C73.7176 73.7277 74.7097 72.7356 74.7097 71.5119C74.7097 70.2881 73.7176 69.2961 72.4939 69.2961C71.2701 69.2961 70.2781 70.2881 70.2781 71.5119C70.2781 72.7356 71.2701 73.7277 72.4939 73.7277Z" fill="#2455A6" fill-opacity="0.2"/>
<path d="M84.2424 73.7277C85.4662 73.7277 86.4583 72.7356 86.4583 71.5119C86.4583 70.2881 85.4662 69.2961 84.2424 69.2961C83.0186 69.2961 82.0266 70.2881 82.0266 71.5119C82.0266 72.7356 83.0186 73.7277 84.2424 73.7277Z" fill="#2455A6" fill-opacity="0.2"/>
<path d="M95.9913 72.0036C96.2613 72.0036 96.4802 71.7846 96.4802 71.5146C96.4802 71.2445 96.2613 71.0256 95.9913 71.0256C95.7212 71.0256 95.5022 71.2445 95.5022 71.5146C95.5022 71.7846 95.7212 72.0036 95.9913 72.0036Z" fill="#2455A6" fill-opacity="0.2"/>
<path d="M1.999 85.4785C3.22277 85.4785 4.21479 84.4865 4.21479 83.2627C4.21479 82.0389 3.22277 81.0469 1.999 81.0469C0.775225 81.0469 -0.216797 82.0389 -0.216797 83.2627C-0.216797 84.4865 0.775225 85.4785 1.999 85.4785Z" fill="#2455A6" fill-opacity="0.2"/>
<path d="M13.7475 85.4785C14.9713 85.4785 15.9635 84.4865 15.9635 83.2627C15.9635 82.0389 14.9713 81.0469 13.7475 81.0469C12.5238 81.0469 11.5317 82.0389 11.5317 83.2627C11.5317 84.4865 12.5238 85.4785 13.7475 85.4785Z" fill="#2455A6" fill-opacity="0.2"/>
<path d="M25.4967 85.4785C26.7205 85.4785 27.7125 84.4865 27.7125 83.2627C27.7125 82.0389 26.7205 81.0469 25.4967 81.0469C24.2729 81.0469 23.2808 82.0389 23.2808 83.2627C23.2808 84.4865 24.2729 85.4785 25.4967 85.4785Z" fill="#2455A6" fill-opacity="0.2"/>
<path d="M37.2453 85.4785C38.4691 85.4785 39.4611 84.4865 39.4611 83.2627C39.4611 82.0389 38.4691 81.0469 37.2453 81.0469C36.0216 81.0469 35.0295 82.0389 35.0295 83.2627C35.0295 84.4865 36.0216 85.4785 37.2453 85.4785Z" fill="#2455A6" fill-opacity="0.2"/>
<path d="M48.9962 85.4785C50.22 85.4785 51.212 84.4865 51.212 83.2627C51.212 82.0389 50.22 81.0469 48.9962 81.0469C47.7724 81.0469 46.7803 82.0389 46.7803 83.2627C46.7803 84.4865 47.7724 85.4785 48.9962 85.4785Z" fill="#2455A6" fill-opacity="0.2"/>
<path d="M60.745 85.4785C61.9688 85.4785 62.9608 84.4865 62.9608 83.2627C62.9608 82.0389 61.9688 81.0469 60.745 81.0469C59.5212 81.0469 58.5291 82.0389 58.5291 83.2627C58.5291 84.4865 59.5212 85.4785 60.745 85.4785Z" fill="#2455A6" fill-opacity="0.2"/>
<path d="M72.4939 85.4785C73.7176 85.4785 74.7097 84.4865 74.7097 83.2627C74.7097 82.0389 73.7176 81.0469 72.4939 81.0469C71.2701 81.0469 70.2781 82.0389 70.2781 83.2627C70.2781 84.4865 71.2701 85.4785 72.4939 85.4785Z" fill="#2455A6" fill-opacity="0.2"/>
<path d="M84.2426 85.4785C85.4664 85.4785 86.4586 84.4865 86.4586 83.2627C86.4586 82.0389 85.4664 81.0469 84.2426 81.0469C83.0189 81.0469 82.0269 82.0389 82.0269 83.2627C82.0269 84.4865 83.0189 85.4785 84.2426 85.4785Z" fill="#2455A6" fill-opacity="0.2"/>
<path d="M95.9915 84.1764C96.4951 84.1764 96.9034 83.7682 96.9034 83.2645C96.9034 82.7609 96.4951 82.3527 95.9915 82.3527C95.4879 82.3527 95.0796 82.7609 95.0796 83.2645C95.0796 83.7682 95.4879 84.1764 95.9915 84.1764Z" fill="#2455A6" fill-opacity="0.2"/>
<path d="M1.999 97.2305C3.22277 97.2305 4.21479 96.2385 4.21479 95.0147C4.21479 93.7909 3.22277 92.7989 1.999 92.7989C0.775225 92.7989 -0.216797 93.7909 -0.216797 95.0147C-0.216797 96.2385 0.775225 97.2305 1.999 97.2305Z" fill="#2455A6" fill-opacity="0.2"/>
<path d="M13.7478 97.2305C14.9715 97.2305 15.9637 96.2385 15.9637 95.0147C15.9637 93.7909 14.9715 92.7989 13.7478 92.7989C12.524 92.7989 11.532 93.7909 11.532 95.0147C11.532 96.2385 12.524 97.2305 13.7478 97.2305Z" fill="#2455A6" fill-opacity="0.2"/>
<path d="M25.4967 97.2305C26.7205 97.2305 27.7125 96.2385 27.7125 95.0147C27.7125 93.7909 26.7205 92.7989 25.4967 92.7989C24.2729 92.7989 23.2808 93.7909 23.2808 95.0147C23.2808 96.2385 24.2729 97.2305 25.4967 97.2305Z" fill="#2455A6" fill-opacity="0.2"/>
<path d="M37.2453 97.2305C38.4691 97.2305 39.4611 96.2385 39.4611 95.0147C39.4611 93.7909 38.4691 92.7989 37.2453 92.7989C36.0216 92.7989 35.0295 93.7909 35.0295 95.0147C35.0295 96.2385 36.0216 97.2305 37.2453 97.2305Z" fill="#2455A6" fill-opacity="0.2"/>
<path d="M48.9964 97.2305C50.2202 97.2305 51.2122 96.2385 51.2122 95.0147C51.2122 93.7909 50.2202 92.7989 48.9964 92.7989C47.7727 92.7989 46.7805 93.7909 46.7805 95.0147C46.7805 96.2385 47.7727 97.2305 48.9964 97.2305Z" fill="#2455A6" fill-opacity="0.2"/>
<path d="M60.745 97.2305C61.9688 97.2305 62.9608 96.2385 62.9608 95.0147C62.9608 93.7909 61.9688 92.7989 60.745 92.7989C59.5212 92.7989 58.5291 93.7909 58.5291 95.0147C58.5291 96.2385 59.5212 97.2305 60.745 97.2305Z" fill="#2455A6" fill-opacity="0.2"/>
<path d="M72.4939 97.2305C73.7176 97.2305 74.7097 96.2385 74.7097 95.0147C74.7097 93.7909 73.7176 92.7989 72.4939 92.7989C71.2701 92.7989 70.2781 93.7909 70.2781 95.0147C70.2781 96.2385 71.2701 97.2305 72.4939 97.2305Z" fill="#2455A6" fill-opacity="0.2"/>
<path d="M84.2424 97.2305C85.4662 97.2305 86.4583 96.2385 86.4583 95.0147C86.4583 93.7909 85.4662 92.7989 84.2424 92.7989C83.0186 92.7989 82.0266 93.7909 82.0266 95.0147C82.0266 96.2385 83.0186 97.2305 84.2424 97.2305Z" fill="#2455A6" fill-opacity="0.2"/>
<path d="M95.9912 96.0236C96.5484 96.0236 96.9999 95.5719 96.9999 95.0148C96.9999 94.4576 96.5484 94.006 95.9912 94.006C95.4341 94.006 94.9824 94.4576 94.9824 95.0148C94.9824 95.5719 95.4341 96.0236 95.9912 96.0236Z" fill="#2455A6" fill-opacity="0.2"/>
<path d="M1.999 108.98C3.22277 108.98 4.21479 107.988 4.21479 106.765C4.21479 105.541 3.22277 104.549 1.999 104.549C0.775225 104.549 -0.216797 105.541 -0.216797 106.765C-0.216797 107.988 0.775225 108.98 1.999 108.98Z" fill="#2455A6" fill-opacity="0.2"/>
<path d="M13.7475 108.98C14.9713 108.98 15.9635 107.988 15.9635 106.765C15.9635 105.541 14.9713 104.549 13.7475 104.549C12.5238 104.549 11.5317 105.541 11.5317 106.765C11.5317 107.988 12.5238 108.98 13.7475 108.98Z" fill="#2455A6" fill-opacity="0.2"/>
<path d="M25.4967 108.98C26.7205 108.98 27.7125 107.988 27.7125 106.765C27.7125 105.541 26.7205 104.549 25.4967 104.549C24.2729 104.549 23.2808 105.541 23.2808 106.765C23.2808 107.988 24.2729 108.98 25.4967 108.98Z" fill="#2455A6" fill-opacity="0.2"/>
<path d="M37.2453 108.98C38.4691 108.98 39.4611 107.988 39.4611 106.765C39.4611 105.541 38.4691 104.549 37.2453 104.549C36.0216 104.549 35.0295 105.541 35.0295 106.765C35.0295 107.988 36.0216 108.98 37.2453 108.98Z" fill="#2455A6" fill-opacity="0.2"/>
<path d="M48.9962 108.98C50.22 108.98 51.212 107.988 51.212 106.765C51.212 105.541 50.22 104.549 48.9962 104.549C47.7724 104.549 46.7803 105.541 46.7803 106.765C46.7803 107.988 47.7724 108.98 48.9962 108.98Z" fill="#2455A6" fill-opacity="0.2"/>
<path d="M60.745 108.98C61.9688 108.98 62.9608 107.988 62.9608 106.765C62.9608 105.541 61.9688 104.549 60.745 104.549C59.5212 104.549 58.5291 105.541 58.5291 106.765C58.5291 107.988 59.5212 108.98 60.745 108.98Z" fill="#2455A6" fill-opacity="0.2"/>
<path d="M72.4939 108.98C73.7176 108.98 74.7097 107.988 74.7097 106.765C74.7097 105.541 73.7176 104.549 72.4939 104.549C71.2701 104.549 70.2781 105.541 70.2781 106.765C70.2781 107.988 71.2701 108.98 72.4939 108.98Z" fill="#2455A6" fill-opacity="0.2"/>
<path d="M84.2426 108.98C85.4664 108.98 86.4586 107.988 86.4586 106.765C86.4586 105.541 85.4664 104.549 84.2426 104.549C83.0189 104.549 82.0269 105.541 82.0269 106.765C82.0269 107.988 83.0189 108.98 84.2426 108.98Z" fill="#2455A6" fill-opacity="0.2"/>
<path d="M95.9913 107.644C96.4766 107.644 96.8701 107.251 96.8701 106.766C96.8701 106.28 96.4766 105.887 95.9913 105.887C95.5059 105.887 95.1123 106.28 95.1123 106.766C95.1123 107.251 95.5059 107.644 95.9913 107.644Z" fill="#2455A6" fill-opacity="0.2"/>
<path d="M1.999 120.731C3.22277 120.731 4.21479 119.739 4.21479 118.516C4.21479 117.292 3.22277 116.3 1.999 116.3C0.775225 116.3 -0.216797 117.292 -0.216797 118.516C-0.216797 119.739 0.775225 120.731 1.999 120.731Z" fill="#2455A6" fill-opacity="0.2"/>
<path d="M13.7478 120.731C14.9715 120.731 15.9637 119.739 15.9637 118.516C15.9637 117.292 14.9715 116.3 13.7478 116.3C12.524 116.3 11.532 117.292 11.532 118.516C11.532 119.739 12.524 120.731 13.7478 120.731Z" fill="#2455A6" fill-opacity="0.2"/>
<path d="M25.4967 120.731C26.7205 120.731 27.7125 119.739 27.7125 118.516C27.7125 117.292 26.7205 116.3 25.4967 116.3C24.2729 116.3 23.2808 117.292 23.2808 118.516C23.2808 119.739 24.2729 120.731 25.4967 120.731Z" fill="#2455A6" fill-opacity="0.2"/>
<path d="M37.2453 120.731C38.4691 120.731 39.4611 119.739 39.4611 118.516C39.4611 117.292 38.4691 116.3 37.2453 116.3C36.0216 116.3 35.0295 117.292 35.0295 118.516C35.0295 119.739 36.0216 120.731 37.2453 120.731Z" fill="#2455A6" fill-opacity="0.2"/>
<path d="M48.9964 120.731C50.2202 120.731 51.2122 119.739 51.2122 118.516C51.2122 117.292 50.2202 116.3 48.9964 116.3C47.7727 116.3 46.7805 117.292 46.7805 118.516C46.7805 119.739 47.7727 120.731 48.9964 120.731Z" fill="#2455A6" fill-opacity="0.2"/>
<path d="M60.745 120.731C61.9688 120.731 62.9608 119.739 62.9608 118.516C62.9608 117.292 61.9688 116.3 60.745 116.3C59.5212 116.3 58.5291 117.292 58.5291 118.516C58.5291 119.739 59.5212 120.731 60.745 120.731Z" fill="#2455A6" fill-opacity="0.2"/>
<path d="M72.4939 120.731C73.7176 120.731 74.7097 119.739 74.7097 118.516C74.7097 117.292 73.7176 116.3 72.4939 116.3C71.2701 116.3 70.2781 117.292 70.2781 118.516C70.2781 119.739 71.2701 120.731 72.4939 120.731Z" fill="#2455A6" fill-opacity="0.2"/>
<path d="M84.2424 120.731C85.4662 120.731 86.4583 119.739 86.4583 118.516C86.4583 117.292 85.4662 116.3 84.2424 116.3C83.0186 116.3 82.0266 117.292 82.0266 118.516C82.0266 119.739 83.0186 120.731 84.2424 120.731Z" fill="#2455A6" fill-opacity="0.2"/>
<path d="M95.9913 119.005C96.2613 119.005 96.4802 118.786 96.4802 118.516C96.4802 118.245 96.2613 118.027 95.9913 118.027C95.7212 118.027 95.5022 118.245 95.5022 118.516C95.5022 118.786 95.7212 119.005 95.9913 119.005Z" fill="#2455A6" fill-opacity="0.2"/>
<path d="M1.999 132.482C3.22277 132.482 4.21479 131.49 4.21479 130.267C4.21479 129.043 3.22277 128.051 1.999 128.051C0.775225 128.051 -0.216797 129.043 -0.216797 130.267C-0.216797 131.49 0.775225 132.482 1.999 132.482Z" fill="#2455A6" fill-opacity="0.2"/>
<path d="M13.7478 132.482C14.9715 132.482 15.9637 131.49 15.9637 130.267C15.9637 129.043 14.9715 128.051 13.7478 128.051C12.524 128.051 11.532 129.043 11.532 130.267C11.532 131.49 12.524 132.482 13.7478 132.482Z" fill="#2455A6" fill-opacity="0.2"/>
<path d="M25.4967 132.482C26.7205 132.482 27.7125 131.49 27.7125 130.267C27.7125 129.043 26.7205 128.051 25.4967 128.051C24.2729 128.051 23.2808 129.043 23.2808 130.267C23.2808 131.49 24.2729 132.482 25.4967 132.482Z" fill="#2455A6" fill-opacity="0.2"/>
<path d="M37.2453 132.482C38.4691 132.482 39.4611 131.49 39.4611 130.267C39.4611 129.043 38.4691 128.051 37.2453 128.051C36.0216 128.051 35.0295 129.043 35.0295 130.267C35.0295 131.49 36.0216 132.482 37.2453 132.482Z" fill="#2455A6" fill-opacity="0.2"/>
<path d="M48.9964 132.482C50.2202 132.482 51.2122 131.49 51.2122 130.267C51.2122 129.043 50.2202 128.051 48.9964 128.051C47.7727 128.051 46.7805 129.043 46.7805 130.267C46.7805 131.49 47.7727 132.482 48.9964 132.482Z" fill="#2455A6" fill-opacity="0.2"/>
<path d="M60.745 132.482C61.9688 132.482 62.9608 131.49 62.9608 130.267C62.9608 129.043 61.9688 128.051 60.745 128.051C59.5212 128.051 58.5291 129.043 58.5291 130.267C58.5291 131.49 59.5212 132.482 60.745 132.482Z" fill="#2455A6" fill-opacity="0.2"/>
<path d="M72.4939 132.482C73.7176 132.482 74.7097 131.49 74.7097 130.267C74.7097 129.043 73.7176 128.051 72.4939 128.051C71.2701 128.051 70.2781 129.043 70.2781 130.267C70.2781 131.49 71.2701 132.482 72.4939 132.482Z" fill="#2455A6" fill-opacity="0.2"/>
<path d="M84.2427 132.19C85.3047 132.19 86.1657 131.329 86.1657 130.267C86.1657 129.205 85.3047 128.344 84.2427 128.344C83.1807 128.344 82.3198 129.205 82.3198 130.267C82.3198 131.329 83.1807 132.19 84.2427 132.19Z" fill="#2455A6" fill-opacity="0.2"/>
<path d="M95.9914 130.332C96.0279 130.332 96.0574 130.303 96.0574 130.266C96.0574 130.23 96.0279 130.2 95.9914 130.2C95.9549 130.2 95.9253 130.23 95.9253 130.266C95.9253 130.303 95.9549 130.332 95.9914 130.332Z" fill="#2455A6" fill-opacity="0.2"/>
<path d="M1.999 144.232C3.22277 144.232 4.21479 143.24 4.21479 142.017C4.21479 140.793 3.22277 139.801 1.999 139.801C0.775225 139.801 -0.216797 140.793 -0.216797 142.017C-0.216797 143.24 0.775225 144.232 1.999 144.232Z" fill="#2455A6" fill-opacity="0.2"/>
<path d="M13.7475 144.232C14.9713 144.232 15.9635 143.24 15.9635 142.017C15.9635 140.793 14.9713 139.801 13.7475 139.801C12.5238 139.801 11.5317 140.793 11.5317 142.017C11.5317 143.24 12.5238 144.232 13.7475 144.232Z" fill="#2455A6" fill-opacity="0.2"/>
<path d="M25.4967 144.232C26.7205 144.232 27.7125 143.24 27.7125 142.017C27.7125 140.793 26.7205 139.801 25.4967 139.801C24.2729 139.801 23.2808 140.793 23.2808 142.017C23.2808 143.24 24.2729 144.232 25.4967 144.232Z" fill="#2455A6" fill-opacity="0.2"/>
<path d="M37.2453 144.232C38.4691 144.232 39.4611 143.24 39.4611 142.017C39.4611 140.793 38.4691 139.801 37.2453 139.801C36.0216 139.801 35.0295 140.793 35.0295 142.017C35.0295 143.24 36.0216 144.232 37.2453 144.232Z" fill="#2455A6" fill-opacity="0.2"/>
<path d="M48.9962 144.232C50.22 144.232 51.212 143.24 51.212 142.017C51.212 140.793 50.22 139.801 48.9962 139.801C47.7724 139.801 46.7803 140.793 46.7803 142.017C46.7803 143.24 47.7724 144.232 48.9962 144.232Z" fill="#2455A6" fill-opacity="0.2"/>
<path d="M60.745 144.232C61.9688 144.232 62.9608 143.24 62.9608 142.017C62.9608 140.793 61.9688 139.801 60.745 139.801C59.5212 139.801 58.5291 140.793 58.5291 142.017C58.5291 143.24 59.5212 144.232 60.745 144.232Z" fill="#2455A6" fill-opacity="0.2"/>
<path d="M72.4939 144.232C73.7176 144.232 74.7097 143.24 74.7097 142.017C74.7097 140.793 73.7176 139.801 72.4939 139.801C71.2701 139.801 70.2781 140.793 70.2781 142.017C70.2781 143.24 71.2701 144.232 72.4939 144.232Z" fill="#2455A6" fill-opacity="0.2"/>
<path d="M84.2426 142.896C84.728 142.896 85.1215 142.503 85.1215 142.018C85.1215 141.532 84.728 141.139 84.2426 141.139C83.7572 141.139 83.3638 141.532 83.3638 142.018C83.3638 142.503 83.7572 142.896 84.2426 142.896Z" fill="#2455A6" fill-opacity="0.2"/>
<path d="M1.999 155.983C3.22277 155.983 4.21479 154.991 4.21479 153.767C4.21479 152.544 3.22277 151.552 1.999 151.552C0.775225 151.552 -0.216797 152.544 -0.216797 153.767C-0.216797 154.991 0.775225 155.983 1.999 155.983Z" fill="#2455A6" fill-opacity="0.2"/>
<path d="M13.7478 155.983C14.9715 155.983 15.9637 154.991 15.9637 153.767C15.9637 152.544 14.9715 151.552 13.7478 151.552C12.524 151.552 11.532 152.544 11.532 153.767C11.532 154.991 12.524 155.983 13.7478 155.983Z" fill="#2455A6" fill-opacity="0.2"/>
<path d="M25.4967 155.983C26.7205 155.983 27.7125 154.991 27.7125 153.767C27.7125 152.544 26.7205 151.552 25.4967 151.552C24.2729 151.552 23.2808 152.544 23.2808 153.767C23.2808 154.991 24.2729 155.983 25.4967 155.983Z" fill="#2455A6" fill-opacity="0.2"/>
<path d="M37.2453 155.983C38.4691 155.983 39.4611 154.991 39.4611 153.767C39.4611 152.544 38.4691 151.552 37.2453 151.552C36.0216 151.552 35.0295 152.544 35.0295 153.767C35.0295 154.991 36.0216 155.983 37.2453 155.983Z" fill="#2455A6" fill-opacity="0.2"/>
<path d="M48.9964 155.983C50.2202 155.983 51.2122 154.991 51.2122 153.767C51.2122 152.544 50.2202 151.552 48.9964 151.552C47.7727 151.552 46.7805 152.544 46.7805 153.767C46.7805 154.991 47.7727 155.983 48.9964 155.983Z" fill="#2455A6" fill-opacity="0.2"/>
<path d="M60.745 155.983C61.9688 155.983 62.9608 154.991 62.9608 153.767C62.9608 152.544 61.9688 151.552 60.745 151.552C59.5212 151.552 58.5291 152.544 58.5291 153.767C58.5291 154.991 59.5212 155.983 60.745 155.983Z" fill="#2455A6" fill-opacity="0.2"/>
<path d="M72.4937 155.298C73.3392 155.298 74.0246 154.612 74.0246 153.767C74.0246 152.922 73.3392 152.236 72.4937 152.236C71.6483 152.236 70.9629 152.922 70.9629 153.767C70.9629 154.612 71.6483 155.298 72.4937 155.298Z" fill="#2455A6" fill-opacity="0.2"/>
<path d="M84.2423 153.8C84.2604 153.8 84.2751 153.785 84.2751 153.767C84.2751 153.749 84.2604 153.734 84.2423 153.734C84.2243 153.734 84.2097 153.749 84.2097 153.767C84.2097 153.785 84.2243 153.8 84.2423 153.8Z" fill="#2455A6" fill-opacity="0.2"/>
<path d="M1.999 167.733C3.22277 167.733 4.21479 166.741 4.21479 165.518C4.21479 164.294 3.22277 163.302 1.999 163.302C0.775225 163.302 -0.216797 164.294 -0.216797 165.518C-0.216797 166.741 0.775225 167.733 1.999 167.733Z" fill="#2455A6" fill-opacity="0.2"/>
<path d="M13.7475 167.733C14.9713 167.733 15.9635 166.741 15.9635 165.518C15.9635 164.294 14.9713 163.302 13.7475 163.302C12.5238 163.302 11.5317 164.294 11.5317 165.518C11.5317 166.741 12.5238 167.733 13.7475 167.733Z" fill="#2455A6" fill-opacity="0.2"/>
<path d="M25.4967 167.733C26.7205 167.733 27.7125 166.741 27.7125 165.518C27.7125 164.294 26.7205 163.302 25.4967 163.302C24.2729 163.302 23.2808 164.294 23.2808 165.518C23.2808 166.741 24.2729 167.733 25.4967 167.733Z" fill="#2455A6" fill-opacity="0.2"/>
<path d="M37.2453 167.733C38.4691 167.733 39.4611 166.741 39.4611 165.518C39.4611 164.294 38.4691 163.302 37.2453 163.302C36.0216 163.302 35.0295 164.294 35.0295 165.518C35.0295 166.741 36.0216 167.733 37.2453 167.733Z" fill="#2455A6" fill-opacity="0.2"/>
<path d="M48.9962 167.733C50.22 167.733 51.212 166.741 51.212 165.518C51.212 164.294 50.22 163.302 48.9962 163.302C47.7724 163.302 46.7803 164.294 46.7803 165.518C46.7803 166.741 47.7724 167.733 48.9962 167.733Z" fill="#2455A6" fill-opacity="0.2"/>
<path d="M60.7452 167.049C61.5906 167.049 62.276 166.364 62.276 165.518C62.276 164.673 61.5906 163.987 60.7452 163.987C59.8997 163.987 59.2144 164.673 59.2144 165.518C59.2144 166.364 59.8997 167.049 60.7452 167.049Z" fill="#2455A6" fill-opacity="0.2"/>
<path d="M72.4938 165.648C72.5655 165.648 72.6238 165.59 72.6238 165.518C72.6238 165.446 72.5655 165.388 72.4938 165.388C72.422 165.388 72.3638 165.446 72.3638 165.518C72.3638 165.59 72.422 165.648 72.4938 165.648Z" fill="#2455A6" fill-opacity="0.2"/>
<path d="M1.999 179.484C3.22277 179.484 4.21479 178.492 4.21479 177.269C4.21479 176.045 3.22277 175.053 1.999 175.053C0.775225 175.053 -0.216797 176.045 -0.216797 177.269C-0.216797 178.492 0.775225 179.484 1.999 179.484Z" fill="#2455A6" fill-opacity="0.2"/>
<path d="M13.7475 179.484C14.9713 179.484 15.9635 178.492 15.9635 177.269C15.9635 176.045 14.9713 175.053 13.7475 175.053C12.5238 175.053 11.5317 176.045 11.5317 177.269C11.5317 178.492 12.5238 179.484 13.7475 179.484Z" fill="#2455A6" fill-opacity="0.2"/>
<path d="M25.4967 179.484C26.7205 179.484 27.7125 178.492 27.7125 177.269C27.7125 176.045 26.7205 175.053 25.4967 175.053C24.2729 175.053 23.2808 176.045 23.2808 177.269C23.2808 178.492 24.2729 179.484 25.4967 179.484Z" fill="#2455A6" fill-opacity="0.2"/>
<path d="M37.2451 179.192C38.3071 179.192 39.168 178.331 39.168 177.269C39.168 176.207 38.3071 175.346 37.2451 175.346C36.1831 175.346 35.3223 176.207 35.3223 177.269C35.3223 178.331 36.1831 179.192 37.2451 179.192Z" fill="#2455A6" fill-opacity="0.2"/>
<path d="M48.9964 178.147C49.4818 178.147 49.8752 177.754 49.8752 177.268C49.8752 176.783 49.4818 176.389 48.9964 176.389C48.511 176.389 48.1174 176.783 48.1174 177.268C48.1174 177.754 48.511 178.147 48.9964 178.147Z" fill="#2455A6" fill-opacity="0.2"/>
<path d="M60.7447 177.301C60.7627 177.301 60.7774 177.286 60.7774 177.268C60.7774 177.25 60.7627 177.235 60.7447 177.235C60.7266 177.235 60.7119 177.25 60.7119 177.268C60.7119 177.286 60.7266 177.301 60.7447 177.301Z" fill="#2455A6" fill-opacity="0.2"/>
<path d="M1.99881 190.027C2.55595 190.027 3.00762 189.576 3.00762 189.019C3.00762 188.462 2.55595 188.01 1.99881 188.01C1.44166 188.01 0.98999 188.462 0.98999 189.019C0.98999 189.576 1.44166 190.027 1.99881 190.027Z" fill="#2455A6" fill-opacity="0.2"/>
<path d="M13.7478 189.931C14.2514 189.931 14.6597 189.523 14.6597 189.019C14.6597 188.516 14.2514 188.107 13.7478 188.107C13.2442 188.107 12.8359 188.516 12.8359 189.019C12.8359 189.523 13.2442 189.931 13.7478 189.931Z" fill="#2455A6" fill-opacity="0.2"/>
<path d="M25.4969 189.507C25.767 189.507 25.9858 189.288 25.9858 189.018C25.9858 188.748 25.767 188.529 25.4969 188.529C25.2268 188.529 25.0078 188.748 25.0078 189.018C25.0078 189.288 25.2268 189.507 25.4969 189.507Z" fill="#2455A6" fill-opacity="0.2"/>
<path d="M37.2453 189.085C37.2818 189.085 37.3114 189.056 37.3114 189.019C37.3114 188.983 37.2818 188.953 37.2453 188.953C37.2088 188.953 37.1792 188.983 37.1792 189.019C37.1792 189.056 37.2088 189.085 37.2453 189.085Z" fill="#2455A6" fill-opacity="0.2"/>
</svg>
