<svg width="477" height="495" viewBox="0 0 477 495" fill="none" xmlns="http://www.w3.org/2000/svg">
<path d="M12.9148 223.959C4.2026 213.469 0 200.881 0 188.593C0 176.603 3.90286 164.614 11.1132 155.025C18.3234 145.136 29.1367 137.638 42.0515 134.047L62.4764 128.651C67.5816 127.451 70.8852 122.959 70.8852 117.857V116.06L69.6828 96.2784V92.9821C69.6828 77.0952 76.29 62.7097 86.5075 52.821C96.722 42.6291 110.838 36.6388 125.855 36.6388C132.765 36.6388 139.672 37.8386 146.28 40.5331L166.105 48.0263L170.311 48.927C173.918 48.927 177.521 47.1294 179.922 43.5304L191.338 25.8489C202.151 9.06131 220.779 0.0724078 238.498 0.367753C256.522 0.0649604 274.845 9.06072 285.958 25.841L297.375 43.8247C299.48 47.121 303.079 48.9186 306.986 48.9186L310.888 48.0179L330.714 40.5246C337.624 37.8263 344.531 36.6304 351.138 36.6304C366.155 36.6304 380.275 42.625 390.486 52.8126C400.7 62.7012 407.606 77.0897 407.31 92.9736V95.9709L406.108 117.251V117.857C406.108 122.951 409.715 127.447 414.517 128.65L435.244 134.047C448.159 137.646 458.973 145.136 465.887 155.024C473.097 164.614 477 176.603 477 188.593C477 200.88 472.794 213.468 464.385 223.959L450.868 240.444L448.467 247.638L450.868 254.534L464.385 271.019C473.097 281.509 477 294.395 477 306.385C477 318.673 473.097 330.364 465.887 339.953C458.677 349.842 448.166 357.339 435.244 360.93L414.517 366.319C410.011 367.519 406.404 372.011 406.108 376.511V377.109V377.715L407.31 398.995V399.287L407.614 401.985C407.614 417.872 400.703 432.257 390.493 442.146C380.279 452.338 366.162 458.328 351.146 458.328C344.539 458.328 337.628 457.129 330.721 454.434L310.896 446.941L306.993 446.04C303.09 446.04 299.483 447.838 297.382 451.134L285.966 469.118C274.845 485.909 256.522 494.897 238.498 494.897C220.777 494.897 202.151 485.909 191.338 469.121L179.626 451.137C177.521 447.841 173.921 446.043 170.314 446.043L166.108 446.944L146.283 454.437C139.676 457.135 132.765 458.331 125.858 458.331C110.842 458.331 97.025 452.337 86.5107 442.149C76.2962 432.26 69.6859 417.872 69.6859 401.988L69.9894 398.995H69.6859L70.8883 377.714V377.116C70.8883 372.317 67.5847 367.526 62.4796 366.323L42.0547 360.926C29.132 357.327 18.3226 349.833 11.1164 339.941C3.9062 330.351 0.0031361 318.66 0.0031361 306.373C0.0031361 294.383 4.20937 281.497 12.9179 271.007L12.6145 271.01L26.1321 254.525L28.8364 247.63L26.1321 240.436L12.9148 223.959Z" fill="#F7941E"/>
<path d="M217.675 275.891L177.459 233.703L163.092 248.506L217.675 305.5L313.908 206.313L299.546 191.511L217.675 275.891Z" fill="white"/>
</svg>
